<svg width="154" height="155" viewBox="0 0 154 155" fill="none" xmlns="http://www.w3.org/2000/svg">
<g filter="url(#filter0_di_1212_15691)">
<path d="M96.6204 20.7834H57.5137C40.5271 20.7834 30.4004 30.9101 30.4004 47.8968V86.9568C30.4004 103.99 40.5271 114.117 57.5137 114.117H96.5737C113.56 114.117 123.687 103.99 123.687 87.0034V47.8968C123.734 30.9101 113.607 20.7834 96.6204 20.7834ZM51.2604 47.4768C52.6137 46.1234 54.8537 46.1234 56.2071 47.4768C59.5204 50.7901 64.9337 50.7901 68.2471 47.4768C69.6004 46.1234 71.8404 46.1234 73.1937 47.4768C74.5471 48.8301 74.5471 51.0701 73.1937 52.4234C70.1604 55.4568 66.1937 56.9501 62.2271 56.9501C58.2604 56.9501 54.2937 55.4568 51.2604 52.4234C49.9071 51.0234 49.9071 48.8301 51.2604 47.4768ZM77.0671 99.0901C64.5137 99.0901 54.2937 88.8701 54.2937 76.3168C54.2937 73.0501 56.9537 70.3434 60.2204 70.3434H93.8204C97.0871 70.3434 99.7471 73.0034 99.7471 76.3168C99.8404 88.8701 89.6204 99.0901 77.0671 99.0901ZM102.874 52.4234C99.8404 55.4568 95.8737 56.9501 91.9071 56.9501C87.9404 56.9501 83.9737 55.4568 80.9404 52.4234C79.5871 51.0701 79.5871 48.8301 80.9404 47.4768C82.2937 46.1234 84.5337 46.1234 85.8871 47.4768C89.2004 50.7901 94.6137 50.7901 97.9271 47.4768C99.2804 46.1234 101.52 46.1234 102.874 47.4768C104.227 48.8301 104.227 51.0234 102.874 52.4234Z" fill="#00C70D"/>
<path d="M96.6201 17.7834L97.4678 17.7913C106.183 17.9558 113.492 20.671 118.664 25.8499C124.002 31.1947 126.711 38.8085 126.688 47.8967V87.0032C126.688 96.0929 123.966 103.707 118.622 109.051C113.278 114.395 105.663 117.116 96.5732 117.116H57.5137C48.4238 117.116 40.8095 114.395 35.4648 109.044C30.1206 103.693 27.4004 96.0674 27.4004 86.9563V47.8967C27.4004 38.8068 30.1216 31.1931 35.4658 25.8489C40.8101 20.5046 48.4237 17.7835 57.5137 17.7834H96.6201ZM60.2207 73.343C58.6414 73.343 57.294 74.6762 57.2939 76.3167C57.2939 87.2131 66.1709 96.0901 77.0674 96.0901C87.9681 96.0899 96.8279 87.2137 96.7471 76.3391V76.3167C96.747 74.6449 95.4148 73.343 93.8203 73.343H60.2207ZM70.7207 49.4622C70.5698 49.4622 70.449 49.5171 70.3682 49.5979C65.8833 54.0828 58.5708 54.0828 54.0859 49.5979C54.0051 49.5171 53.8843 49.4622 53.7334 49.4622C53.5827 49.4622 53.4626 49.5172 53.3818 49.5979C53.2214 49.7584 53.17 50.0736 53.4092 50.3293C55.8476 52.753 59.0269 53.9504 62.2275 53.9504C65.44 53.9503 68.6304 52.7438 71.0723 50.302C71.153 50.2212 71.2089 50.1012 71.209 49.9504C71.209 49.7995 71.1531 49.6787 71.0723 49.5979C70.9915 49.5172 70.8714 49.4622 70.7207 49.4622ZM100.4 49.4622C100.25 49.4622 100.13 49.5172 100.049 49.5979C95.5639 54.0828 88.2505 54.0828 83.7656 49.5979C83.6849 49.5172 83.5647 49.4622 83.4141 49.4622C83.2631 49.4622 83.1424 49.5171 83.0615 49.5979C82.9807 49.6787 82.9258 49.7995 82.9258 49.9504C82.9259 50.1011 82.9808 50.2212 83.0615 50.302C85.5035 52.744 88.6946 53.9504 91.9072 53.9504C95.1073 53.9504 98.2844 52.7522 100.723 50.3293C100.963 50.0734 100.913 49.7586 100.752 49.5979C100.671 49.5172 100.551 49.4622 100.4 49.4622Z" stroke="white" stroke-width="6"/>
</g>
<defs>
<filter id="filter0_di_1212_15691" x="0.400391" y="0.783447" width="153.287" height="153.333" filterUnits="userSpaceOnUse" color-interpolation-filters="sRGB">
<feFlood flood-opacity="0" result="BackgroundImageFix"/>
<feColorMatrix in="SourceAlpha" type="matrix" values="0 0 0 0 0 0 0 0 0 0 0 0 0 0 0 0 0 0 127 0" result="hardAlpha"/>
<feOffset dy="10"/>
<feGaussianBlur stdDeviation="12"/>
<feComposite in2="hardAlpha" operator="out"/>
<feColorMatrix type="matrix" values="0 0 0 0 0 0 0 0 0 0.780392 0 0 0 0 0.0509804 0 0 0 0.3 0"/>
<feBlend mode="normal" in2="BackgroundImageFix" result="effect1_dropShadow_1212_15691"/>
<feBlend mode="normal" in="SourceGraphic" in2="effect1_dropShadow_1212_15691" result="shape"/>
<feColorMatrix in="SourceAlpha" type="matrix" values="0 0 0 0 0 0 0 0 0 0 0 0 0 0 0 0 0 0 127 0" result="hardAlpha"/>
<feOffset dx="5" dy="4"/>
<feGaussianBlur stdDeviation="4.3"/>
<feComposite in2="hardAlpha" operator="arithmetic" k2="-1" k3="1"/>
<feColorMatrix type="matrix" values="0 0 0 0 1 0 0 0 0 1 0 0 0 0 1 0 0 0 0.35 0"/>
<feBlend mode="normal" in2="shape" result="effect2_innerShadow_1212_15691"/>
</filter>
</defs>
</svg>
