<svg width="156" height="155" viewBox="0 0 156 155" fill="none" xmlns="http://www.w3.org/2000/svg">
<g filter="url(#filter0_di_1212_15673)">
<path d="M105.921 77.0122C107.94 74.5744 111.73 74.0077 114.298 76.3071L114.543 76.5386L124.902 86.8989C127.346 89.3426 128.464 92.4656 127.896 95.4526C127.325 98.4556 125.1 100.859 121.975 101.599L121.973 101.6L114.294 103.414L114.295 103.415C113.775 103.541 113.505 103.885 113.436 104.207L113.428 104.243L113.419 104.278L111.786 111.137C110.25 117.599 101.987 119.708 97.6191 114.583L83.666 98.5298L83.6582 98.521L83.6504 98.5112C80.9154 95.3203 82.3063 90.138 86.626 89.0581L86.6367 89.0552L86.6484 89.0522C94.1777 87.223 100.942 83.0118 105.921 77.0122Z" fill="#FFBD22" stroke="white" stroke-width="7"/>
<path d="M41.4707 76.3071C44.0383 74.0077 47.8286 74.5744 49.8477 77.0122L50.3193 77.5688C55.2494 83.2724 61.8259 87.2802 69.1201 89.0522L69.1318 89.0552L69.1426 89.0581C73.4622 90.138 74.8531 95.3203 72.1182 98.5112L72.1104 98.521L72.1025 98.5298L58.1494 114.583L58.1484 114.583C53.7809 119.708 45.5181 117.598 43.9824 111.137L42.3496 104.278L42.3408 104.243L42.333 104.207C42.2633 103.885 41.9933 103.541 41.4736 103.415V103.414L33.7959 101.6L33.7939 101.599C30.6682 100.859 28.4431 98.4556 27.8721 95.4526C27.3041 92.4656 28.4226 89.3426 30.8662 86.8989L41.2256 76.5386L41.4707 76.3071Z" fill="#FFBD22" stroke="white" stroke-width="7"/>
<path d="M78 17.833C97.9928 17.8332 114.166 34.0071 114.166 54C114.166 61.4741 111.945 68.3538 108.118 74.0947L108.113 74.1025L108.107 74.1113C102.555 82.3376 93.7547 88.1753 83.4893 89.6963C81.6995 90.011 79.8686 90.166 78 90.166C76.1301 90.166 74.2978 90.0104 72.5068 89.6953C62.2428 88.1735 53.4438 82.3368 47.8916 74.1113L47.8867 74.1025L47.8809 74.0947C44.0536 68.3538 41.8331 61.4741 41.833 54C41.833 34.007 58.007 17.833 78 17.833ZM75.6699 46.9785C75.1778 47.9625 74.4216 48.729 73.7178 49.2568C73.0153 49.7837 72.0477 50.3114 70.9219 50.499L70.9209 50.498L66.8896 51.1768L70.1318 54.3418L70.1611 54.3711C71.0522 55.2622 71.5345 56.37 71.7773 57.2705C72.0231 58.1819 72.138 59.3042 71.9043 60.4141L71.8965 60.4512L71.8887 60.4873L71.0273 64.1816L74.7275 61.999C75.8192 61.3464 77.0339 61.128 78.0459 61.1279C79.0578 61.1279 80.2726 61.3466 81.3643 61.999H81.3652L85.0645 64.1816L84.2041 60.4873L84.2051 60.4863C83.9223 59.3045 84.046 58.1392 84.3105 57.208C84.5787 56.2642 85.0891 55.2137 85.9316 54.3711L89.1299 51.1719L85.1533 50.5029C85.1501 50.5024 85.1468 50.5025 85.1436 50.502L85.1191 50.498V50.4971C83.9968 50.3126 83.0265 49.8036 82.3066 49.2715C81.5835 48.737 80.8227 47.9656 80.3291 46.9785L77.999 42.3193L75.6699 46.9785Z" fill="#FFBD22" stroke="white" stroke-width="7"/>
</g>
<defs>
<filter id="filter0_di_1212_15673" x="0.225586" y="0.333008" width="155.317" height="154.623" filterUnits="userSpaceOnUse" color-interpolation-filters="sRGB">
<feFlood flood-opacity="0" result="BackgroundImageFix"/>
<feColorMatrix in="SourceAlpha" type="matrix" values="0 0 0 0 0 0 0 0 0 0 0 0 0 0 0 0 0 0 127 0" result="hardAlpha"/>
<feOffset dy="10"/>
<feGaussianBlur stdDeviation="12"/>
<feComposite in2="hardAlpha" operator="out"/>
<feColorMatrix type="matrix" values="0 0 0 0 1 0 0 0 0 0.741176 0 0 0 0 0.133333 0 0 0 0.3 0"/>
<feBlend mode="normal" in2="BackgroundImageFix" result="effect1_dropShadow_1212_15673"/>
<feBlend mode="normal" in="SourceGraphic" in2="effect1_dropShadow_1212_15673" result="shape"/>
<feColorMatrix in="SourceAlpha" type="matrix" values="0 0 0 0 0 0 0 0 0 0 0 0 0 0 0 0 0 0 127 0" result="hardAlpha"/>
<feOffset dx="5" dy="16"/>
<feGaussianBlur stdDeviation="4.8"/>
<feComposite in2="hardAlpha" operator="arithmetic" k2="-1" k3="1"/>
<feColorMatrix type="matrix" values="0 0 0 0 1 0 0 0 0 1 0 0 0 0 1 0 0 0 0.5 0"/>
<feBlend mode="normal" in2="shape" result="effect2_innerShadow_1212_15673"/>
</filter>
</defs>
</svg>
