<svg width="112" height="112" viewBox="0 0 112 112" fill="none" xmlns="http://www.w3.org/2000/svg">
<path d="M83.9209 65.0122C85.94 62.5744 89.7302 62.0077 92.2979 64.3071L92.543 64.5386L102.902 74.8989C105.346 77.3426 106.464 80.4656 105.896 83.4526C105.325 86.4556 103.1 88.8587 99.9746 89.5991L99.9727 89.6001L92.2939 91.4136L92.2949 91.4146C91.7753 91.541 91.5052 91.8846 91.4355 92.2065L91.4277 92.2427L91.4189 92.2778L89.7861 99.1372C88.2504 105.599 79.9866 107.708 75.6191 102.583L61.666 86.5298L61.6582 86.521L61.6504 86.5112C58.9154 83.3203 60.3063 78.138 64.626 77.0581L64.6367 77.0552L64.6484 77.0522C72.1777 75.223 78.9425 71.0118 83.9209 65.0122Z" fill="#FFBD22" stroke="white" stroke-width="7"/>
<path d="M19.4707 64.3071C22.0383 62.0077 25.8286 62.5744 27.8477 65.0122L28.3193 65.5688C33.2494 71.2724 39.8259 75.2802 47.1201 77.0522L47.1318 77.0552L47.1426 77.0581C51.4622 78.138 52.8531 83.3203 50.1182 86.5112L50.1104 86.521L50.1025 86.5298L36.1494 102.583L36.1484 102.583C31.7809 107.708 23.5181 105.598 21.9824 99.1372L20.3496 92.2778L20.3408 92.2427L20.333 92.2065C20.2633 91.8846 19.9933 91.541 19.4736 91.4146V91.4136L11.7959 89.6001L11.7939 89.5991C8.66817 88.8587 6.44311 86.4556 5.87207 83.4526C5.30411 80.4656 6.42258 77.3426 8.86621 74.8989L19.2256 64.5386L19.4707 64.3071Z" fill="#FFBD22" stroke="white" stroke-width="7"/>
<path d="M56 5.83301C75.9928 5.83318 92.166 22.0071 92.166 42C92.166 49.4741 89.9454 56.3538 86.1182 62.0947L86.1133 62.1025L86.1074 62.1113C80.5546 70.3376 71.7547 76.1753 61.4893 77.6963C59.6995 78.011 57.8686 78.166 56 78.166C54.1301 78.166 52.2978 78.0104 50.5068 77.6953C40.2428 76.1735 31.4438 70.3368 25.8916 62.1113L25.8867 62.1025L25.8809 62.0947C22.0536 56.3538 19.8331 49.4741 19.833 42C19.833 22.007 36.007 5.83301 56 5.83301ZM53.6699 34.9785C53.1778 35.9625 52.4216 36.729 51.7178 37.2568C51.0153 37.7837 50.0477 38.3114 48.9219 38.499L48.9209 38.498L44.8896 39.1768L48.1318 42.3418L48.1611 42.3711C49.0522 43.2622 49.5345 44.37 49.7773 45.2705C50.0231 46.1819 50.138 47.3042 49.9043 48.4141L49.8965 48.4512L49.8887 48.4873L49.0273 52.1816L52.7275 49.999C53.8192 49.3464 55.0339 49.128 56.0459 49.1279C57.0578 49.1279 58.2726 49.3466 59.3643 49.999H59.3652L63.0645 52.1816L62.2041 48.4873L62.2051 48.4863C61.9223 47.3045 62.046 46.1392 62.3105 45.208C62.5787 44.2642 63.0891 43.2137 63.9316 42.3711L67.1299 39.1719L63.1533 38.5029C63.1501 38.5024 63.1468 38.5025 63.1436 38.502L63.1191 38.498V38.4971C61.9968 38.3126 61.0265 37.8036 60.3066 37.2715C59.5835 36.737 58.8227 35.9656 58.3291 34.9785L55.999 30.3193L53.6699 34.9785Z" fill="#FFBD22" stroke="white" stroke-width="7"/>
</svg>
