<svg width="1440" height="39" viewBox="0 0 1440 39" fill="none" xmlns="http://www.w3.org/2000/svg">
<mask id="path-1-inside-1_1232_15157" fill="white">
<path d="M-40.1602 -56C-37.0776 -53.5111 -33.0292 -52.0001 -28.5947 -52C-24.16 -52 -20.111 -53.5109 -17.0283 -56H1433.18C1435.08 -55.3539 1437.14 -55 1439.28 -55C1441.43 -55 1443.48 -55.3538 1445.38 -56H1495V39H1431.5C1431.58 38.3448 1431.63 37.6773 1431.63 37C1431.63 28.1634 1423.8 21 1414.14 21C1404.48 21.0001 1396.66 28.1635 1396.66 37C1396.66 37.6773 1396.7 38.3448 1396.79 39H1380.12C1380.21 38.3448 1380.26 37.6773 1380.26 37C1380.26 28.1634 1372.43 21 1362.77 21C1353.11 21.0001 1345.29 28.1635 1345.29 37C1345.29 37.6774 1345.33 38.3448 1345.42 39H1328.75C1328.84 38.3448 1328.89 37.6773 1328.89 37C1328.89 28.1634 1321.06 21 1311.4 21C1301.74 21.0001 1293.92 28.1635 1293.92 37C1293.92 37.6774 1293.96 38.3448 1294.05 39H1277.38C1277.47 38.3448 1277.52 37.6773 1277.52 37C1277.52 28.1635 1269.69 21.0002 1260.03 21C1250.37 21 1242.54 28.1634 1242.54 37C1242.54 37.6773 1242.59 38.3448 1242.68 39H1226.01C1226.1 38.3448 1226.15 37.6773 1226.15 37C1226.15 28.1636 1218.32 21.0002 1208.66 21C1199 21 1191.17 28.1634 1191.17 37C1191.17 37.6773 1191.22 38.3448 1191.31 39H1176.83C1176.92 38.3448 1176.97 37.6773 1176.97 37C1176.97 28.1634 1169.14 21 1159.48 21C1149.82 21.0001 1141.99 28.1635 1141.99 37C1141.99 37.6774 1142.04 38.3448 1142.13 39H1125.46C1125.55 38.3448 1125.6 37.6773 1125.6 37C1125.6 28.1634 1117.77 21 1108.11 21C1098.45 21.0001 1090.62 28.1635 1090.62 37C1090.62 37.6774 1090.67 38.3448 1090.76 39H1074.09C1074.18 38.3448 1074.22 37.6773 1074.22 37C1074.22 28.1634 1066.4 21 1056.74 21C1047.08 21 1039.25 28.1635 1039.25 37C1039.25 37.6773 1039.3 38.3448 1039.38 39H1022.72C1022.81 38.3448 1022.85 37.6773 1022.85 37C1022.85 28.1636 1015.03 21.0002 1005.37 21C995.709 21 987.879 28.1634 987.879 37C987.879 37.6773 987.925 38.3448 988.015 39H971.349C971.438 38.3448 971.484 37.6773 971.484 37C971.484 28.1634 963.654 21 953.996 21C944.338 21.0002 936.509 28.1636 936.509 37C936.509 37.6773 936.555 38.3448 936.645 39H919.979C920.068 38.3448 920.114 37.6773 920.114 37C920.114 28.1634 912.284 21 902.626 21C892.968 21.0002 885.139 28.1636 885.139 37C885.139 37.6773 885.185 38.3448 885.274 39H868.609C868.699 38.3448 868.745 37.6773 868.745 37C868.745 28.1634 860.915 21 851.257 21C841.599 21.0002 833.77 28.1636 833.77 37C833.77 37.6773 833.816 38.3448 833.905 39H817.238C817.328 38.3448 817.374 37.6773 817.374 37C817.374 28.1634 809.544 21 799.886 21C790.228 21.0002 782.398 28.1636 782.398 37C782.398 37.6773 782.445 38.3448 782.534 39H765.868C765.957 38.3448 766.004 37.6773 766.004 37C766.004 28.1634 758.174 21 748.516 21C738.858 21.0002 731.028 28.1636 731.028 37C731.028 37.6773 731.075 38.3448 731.164 39H714.498C714.587 38.3448 714.634 37.6773 714.634 37C714.634 28.1634 706.804 21 697.146 21C687.487 21.0002 679.658 28.1636 679.658 37C679.658 37.6773 679.705 38.3448 679.794 39H663.128C663.217 38.3448 663.264 37.6773 663.264 37C663.264 28.1634 655.434 21 645.775 21C636.117 21.0002 628.288 28.1636 628.288 37C628.288 37.6773 628.335 38.3448 628.424 39H613.943C614.033 38.3448 614.079 37.6773 614.079 37C614.079 28.1634 606.249 21 596.591 21C586.933 21.0002 579.104 28.1636 579.104 37C579.104 37.6773 579.15 38.3448 579.239 39H562.573C562.663 38.3448 562.709 37.6773 562.709 37C562.709 28.1634 554.879 21 545.221 21C535.563 21.0002 527.733 28.1636 527.733 37C527.733 37.6773 527.78 38.3448 527.869 39H511.203C511.292 38.3448 511.339 37.6773 511.339 37C511.339 28.1634 503.509 21 493.851 21C484.193 21.0002 476.363 28.1636 476.363 37C476.363 37.6773 476.41 38.3448 476.499 39H459.833C459.922 38.3448 459.969 37.6773 459.969 37C459.969 28.1634 452.139 21 442.48 21C432.822 21.0002 424.993 28.1636 424.993 37C424.993 37.6773 425.04 38.3448 425.129 39H408.463C408.552 38.3448 408.599 37.6773 408.599 37C408.599 28.1634 400.769 21 391.11 21C381.452 21.0001 373.623 28.1635 373.623 37C373.623 37.6774 373.669 38.3448 373.759 39H358.186C358.275 38.3448 358.321 37.6773 358.321 37C358.321 28.1634 350.491 21 340.833 21C331.175 21.0002 323.346 28.1636 323.346 37C323.346 37.6773 323.392 38.3448 323.481 39H309.002C309.091 38.3448 309.138 37.6773 309.138 37C309.138 28.1634 301.308 21 291.649 21C281.991 21.0002 274.162 28.1636 274.162 37C274.162 37.6773 274.209 38.3448 274.298 39H257.632C257.721 38.3448 257.768 37.6773 257.768 37C257.768 28.1634 249.938 21 240.279 21C230.621 21.0002 222.792 28.1636 222.792 37C222.792 37.6773 222.838 38.3448 222.928 39H206.262C206.351 38.3448 206.397 37.6773 206.397 37C206.397 28.1634 198.567 21 188.909 21C179.251 21.0002 171.422 28.1636 171.422 37C171.422 37.6773 171.468 38.3448 171.558 39H154.892C154.981 38.3448 155.027 37.6773 155.027 37C155.027 28.1634 147.197 21 137.539 21C127.881 21.0002 120.052 28.1636 120.052 37C120.052 37.6773 120.098 38.3448 120.188 39H103.521C103.61 38.3448 103.656 37.6773 103.656 37C103.656 28.1634 95.8262 21 86.168 21C76.51 21.0002 68.6807 28.1636 68.6807 37C68.6807 37.6773 68.7271 38.3448 68.8164 39H53.2432C53.3325 38.3448 53.3789 37.6773 53.3789 37C53.3789 28.1635 45.5497 21.0002 35.8916 21C26.2334 21 18.4033 28.1634 18.4033 37C18.4033 37.6773 18.4498 38.3448 18.5391 39H1.87305C1.96235 38.3448 2.00879 37.6773 2.00879 37C2.00879 28.1636 -5.82048 21.0002 -15.4785 21C-25.1367 21 -32.9668 28.1634 -32.9668 37C-32.9668 37.6773 -32.9204 38.3448 -32.8311 39H-54V-56H-40.1602ZM-28.5947 -38C-38.2527 -37.9998 -46.082 -30.8364 -46.082 -22C-46.082 -13.1636 -38.2527 -6.00021 -28.5947 -6C-18.9365 -6 -11.1064 -13.1634 -11.1064 -22C-11.1064 -30.8366 -18.9365 -38 -28.5947 -38ZM1439.28 -41C1429.62 -41 1421.79 -33.8366 1421.79 -25C1421.79 -16.1634 1429.62 -9 1439.28 -9C1448.94 -9.0001 1456.77 -16.1635 1456.77 -25C1456.77 -33.8365 1448.94 -40.9999 1439.28 -41Z"/>
</mask>
<path d="M-40.1602 -56C-37.0776 -53.5111 -33.0292 -52.0001 -28.5947 -52C-24.16 -52 -20.111 -53.5109 -17.0283 -56H1433.18C1435.08 -55.3539 1437.14 -55 1439.28 -55C1441.43 -55 1443.48 -55.3538 1445.38 -56H1495V39H1431.5C1431.58 38.3448 1431.63 37.6773 1431.63 37C1431.63 28.1634 1423.8 21 1414.14 21C1404.48 21.0001 1396.66 28.1635 1396.66 37C1396.66 37.6773 1396.7 38.3448 1396.79 39H1380.12C1380.21 38.3448 1380.26 37.6773 1380.26 37C1380.26 28.1634 1372.43 21 1362.77 21C1353.11 21.0001 1345.29 28.1635 1345.29 37C1345.29 37.6774 1345.33 38.3448 1345.42 39H1328.75C1328.84 38.3448 1328.89 37.6773 1328.89 37C1328.89 28.1634 1321.06 21 1311.4 21C1301.74 21.0001 1293.92 28.1635 1293.92 37C1293.92 37.6774 1293.96 38.3448 1294.05 39H1277.38C1277.47 38.3448 1277.52 37.6773 1277.52 37C1277.52 28.1635 1269.69 21.0002 1260.03 21C1250.37 21 1242.54 28.1634 1242.54 37C1242.54 37.6773 1242.59 38.3448 1242.68 39H1226.01C1226.1 38.3448 1226.15 37.6773 1226.15 37C1226.15 28.1636 1218.32 21.0002 1208.66 21C1199 21 1191.17 28.1634 1191.17 37C1191.17 37.6773 1191.22 38.3448 1191.31 39H1176.83C1176.92 38.3448 1176.97 37.6773 1176.97 37C1176.97 28.1634 1169.14 21 1159.48 21C1149.82 21.0001 1141.99 28.1635 1141.99 37C1141.99 37.6774 1142.04 38.3448 1142.13 39H1125.46C1125.55 38.3448 1125.6 37.6773 1125.6 37C1125.6 28.1634 1117.77 21 1108.11 21C1098.45 21.0001 1090.62 28.1635 1090.62 37C1090.62 37.6774 1090.67 38.3448 1090.76 39H1074.09C1074.18 38.3448 1074.22 37.6773 1074.22 37C1074.22 28.1634 1066.4 21 1056.74 21C1047.08 21 1039.25 28.1635 1039.25 37C1039.25 37.6773 1039.3 38.3448 1039.38 39H1022.72C1022.81 38.3448 1022.85 37.6773 1022.85 37C1022.85 28.1636 1015.03 21.0002 1005.37 21C995.709 21 987.879 28.1634 987.879 37C987.879 37.6773 987.925 38.3448 988.015 39H971.349C971.438 38.3448 971.484 37.6773 971.484 37C971.484 28.1634 963.654 21 953.996 21C944.338 21.0002 936.509 28.1636 936.509 37C936.509 37.6773 936.555 38.3448 936.645 39H919.979C920.068 38.3448 920.114 37.6773 920.114 37C920.114 28.1634 912.284 21 902.626 21C892.968 21.0002 885.139 28.1636 885.139 37C885.139 37.6773 885.185 38.3448 885.274 39H868.609C868.699 38.3448 868.745 37.6773 868.745 37C868.745 28.1634 860.915 21 851.257 21C841.599 21.0002 833.77 28.1636 833.77 37C833.77 37.6773 833.816 38.3448 833.905 39H817.238C817.328 38.3448 817.374 37.6773 817.374 37C817.374 28.1634 809.544 21 799.886 21C790.228 21.0002 782.398 28.1636 782.398 37C782.398 37.6773 782.445 38.3448 782.534 39H765.868C765.957 38.3448 766.004 37.6773 766.004 37C766.004 28.1634 758.174 21 748.516 21C738.858 21.0002 731.028 28.1636 731.028 37C731.028 37.6773 731.075 38.3448 731.164 39H714.498C714.587 38.3448 714.634 37.6773 714.634 37C714.634 28.1634 706.804 21 697.146 21C687.487 21.0002 679.658 28.1636 679.658 37C679.658 37.6773 679.705 38.3448 679.794 39H663.128C663.217 38.3448 663.264 37.6773 663.264 37C663.264 28.1634 655.434 21 645.775 21C636.117 21.0002 628.288 28.1636 628.288 37C628.288 37.6773 628.335 38.3448 628.424 39H613.943C614.033 38.3448 614.079 37.6773 614.079 37C614.079 28.1634 606.249 21 596.591 21C586.933 21.0002 579.104 28.1636 579.104 37C579.104 37.6773 579.15 38.3448 579.239 39H562.573C562.663 38.3448 562.709 37.6773 562.709 37C562.709 28.1634 554.879 21 545.221 21C535.563 21.0002 527.733 28.1636 527.733 37C527.733 37.6773 527.78 38.3448 527.869 39H511.203C511.292 38.3448 511.339 37.6773 511.339 37C511.339 28.1634 503.509 21 493.851 21C484.193 21.0002 476.363 28.1636 476.363 37C476.363 37.6773 476.41 38.3448 476.499 39H459.833C459.922 38.3448 459.969 37.6773 459.969 37C459.969 28.1634 452.139 21 442.48 21C432.822 21.0002 424.993 28.1636 424.993 37C424.993 37.6773 425.04 38.3448 425.129 39H408.463C408.552 38.3448 408.599 37.6773 408.599 37C408.599 28.1634 400.769 21 391.11 21C381.452 21.0001 373.623 28.1635 373.623 37C373.623 37.6774 373.669 38.3448 373.759 39H358.186C358.275 38.3448 358.321 37.6773 358.321 37C358.321 28.1634 350.491 21 340.833 21C331.175 21.0002 323.346 28.1636 323.346 37C323.346 37.6773 323.392 38.3448 323.481 39H309.002C309.091 38.3448 309.138 37.6773 309.138 37C309.138 28.1634 301.308 21 291.649 21C281.991 21.0002 274.162 28.1636 274.162 37C274.162 37.6773 274.209 38.3448 274.298 39H257.632C257.721 38.3448 257.768 37.6773 257.768 37C257.768 28.1634 249.938 21 240.279 21C230.621 21.0002 222.792 28.1636 222.792 37C222.792 37.6773 222.838 38.3448 222.928 39H206.262C206.351 38.3448 206.397 37.6773 206.397 37C206.397 28.1634 198.567 21 188.909 21C179.251 21.0002 171.422 28.1636 171.422 37C171.422 37.6773 171.468 38.3448 171.558 39H154.892C154.981 38.3448 155.027 37.6773 155.027 37C155.027 28.1634 147.197 21 137.539 21C127.881 21.0002 120.052 28.1636 120.052 37C120.052 37.6773 120.098 38.3448 120.188 39H103.521C103.61 38.3448 103.656 37.6773 103.656 37C103.656 28.1634 95.8262 21 86.168 21C76.51 21.0002 68.6807 28.1636 68.6807 37C68.6807 37.6773 68.7271 38.3448 68.8164 39H53.2432C53.3325 38.3448 53.3789 37.6773 53.3789 37C53.3789 28.1635 45.5497 21.0002 35.8916 21C26.2334 21 18.4033 28.1634 18.4033 37C18.4033 37.6773 18.4498 38.3448 18.5391 39H1.87305C1.96235 38.3448 2.00879 37.6773 2.00879 37C2.00879 28.1636 -5.82048 21.0002 -15.4785 21C-25.1367 21 -32.9668 28.1634 -32.9668 37C-32.9668 37.6773 -32.9204 38.3448 -32.8311 39H-54V-56H-40.1602ZM-28.5947 -38C-38.2527 -37.9998 -46.082 -30.8364 -46.082 -22C-46.082 -13.1636 -38.2527 -6.00021 -28.5947 -6C-18.9365 -6 -11.1064 -13.1634 -11.1064 -22C-11.1064 -30.8366 -18.9365 -38 -28.5947 -38ZM1439.28 -41C1429.62 -41 1421.79 -33.8366 1421.79 -25C1421.79 -16.1634 1429.62 -9 1439.28 -9C1448.94 -9.0001 1456.77 -16.1635 1456.77 -25C1456.77 -33.8365 1448.94 -40.9999 1439.28 -41Z" fill="white"/>
<path d="M-40.1602 -56L-39.5319 -56.778L-39.8068 -57H-40.1602V-56ZM-28.5947 -52L-28.5947 -51H-28.5947V-52ZM-17.0283 -56V-57H-17.3816L-17.6565 -56.778L-17.0283 -56ZM1433.18 -56L1433.51 -56.9467L1433.35 -57H1433.18V-56ZM1439.28 -55V-54V-55ZM1445.38 -56V-57H1445.21L1445.06 -56.9467L1445.38 -56ZM1495 -56H1496V-57H1495V-56ZM1495 39V40H1496V39H1495ZM1431.5 39L1430.5 38.865L1430.35 40H1431.5V39ZM1414.14 21V20V21ZM1396.79 39V40H1397.94L1397.78 38.865L1396.79 39ZM1380.12 39L1379.13 38.865L1378.98 40H1380.12V39ZM1362.77 21V20V21ZM1345.42 39V40H1346.57L1346.41 38.865L1345.42 39ZM1328.75 39L1327.76 38.865L1327.61 40H1328.75V39ZM1311.4 21V20V21ZM1294.05 39V40H1295.2L1295.04 38.865L1294.05 39ZM1277.38 39L1276.39 38.865L1276.24 40H1277.38V39ZM1260.03 21V20V21ZM1242.68 39V40H1243.83L1243.67 38.865L1242.68 39ZM1226.01 39L1225.02 38.865L1224.87 40H1226.01V39ZM1208.66 21V20V21ZM1191.31 39V40H1192.46L1192.3 38.865L1191.31 39ZM1176.83 39L1175.84 38.865L1175.68 40H1176.83V39ZM1159.48 21V20V21ZM1142.13 39V40H1143.27L1143.12 38.865L1142.13 39ZM1125.46 39L1124.47 38.865L1124.31 40H1125.46V39ZM1108.11 21V20V21ZM1090.76 39V40H1091.9L1091.75 38.865L1090.76 39ZM1074.09 39L1073.1 38.865L1072.94 40H1074.09V39ZM1056.74 21V20V21ZM1039.38 39V40H1040.53L1040.38 38.865L1039.38 39ZM1022.72 39L1021.73 38.865L1021.57 40H1022.72V39ZM1005.37 21V20V21ZM988.015 39V40H989.16L989.005 38.865L988.015 39ZM971.349 39L970.358 38.865L970.203 40H971.349V39ZM953.996 21V20V21ZM936.645 39V40H937.79L937.635 38.865L936.645 39ZM919.979 39L918.988 38.865L918.833 40H919.979V39ZM902.626 21V20V21ZM885.274 39V40H886.42L886.265 38.865L885.274 39ZM868.609 39L867.619 38.865L867.464 40H868.609V39ZM851.257 21V20V21ZM833.905 39V40H835.051L834.896 38.865L833.905 39ZM817.238 39L816.247 38.865L816.093 40H817.238V39ZM799.886 21V20V21ZM782.534 39V40H783.68L783.525 38.865L782.534 39ZM765.868 39L764.877 38.865L764.723 40H765.868V39ZM748.516 21V20V21ZM731.164 39V40H732.31L732.155 38.865L731.164 39ZM714.498 39L713.507 38.865L713.352 40H714.498V39ZM697.146 21V20V21ZM679.794 39V40H680.94L680.785 38.865L679.794 39ZM663.128 39L662.137 38.865L661.982 40H663.128V39ZM645.775 21V20V21ZM628.424 39V40H629.569L629.415 38.865L628.424 39ZM613.943 39L612.953 38.865L612.798 40H613.943V39ZM596.591 21V20V21ZM579.239 39V40H580.385L580.23 38.865L579.239 39ZM562.573 39L561.582 38.865L561.428 40H562.573V39ZM545.221 21V20V21ZM527.869 39V40H529.015L528.86 38.865L527.869 39ZM511.203 39L510.212 38.865L510.058 40H511.203V39ZM493.851 21V20V21ZM476.499 39V40H477.645L477.49 38.865L476.499 39ZM459.833 39L458.842 38.865L458.687 40H459.833V39ZM442.48 21V20H442.48L442.48 21ZM425.129 39V40H426.274L426.12 38.865L425.129 39ZM408.463 39L407.472 38.865L407.317 40H408.463V39ZM391.11 21V20V21ZM373.759 39V40H374.904L374.75 38.865L373.759 39ZM358.186 39L357.195 38.865L357.04 40H358.186V39ZM340.833 21V20H340.833L340.833 21ZM323.481 39V40H324.627L324.472 38.865L323.481 39ZM309.002 39L308.011 38.865L307.856 40H309.002V39ZM291.649 21V20H291.649L291.649 21ZM274.298 39V40H275.443L275.289 38.865L274.298 39ZM257.632 39L256.641 38.865L256.486 40H257.632V39ZM240.279 21V20H240.279L240.279 21ZM222.928 39V40H224.073L223.919 38.865L222.928 39ZM206.262 39L205.271 38.865L205.116 40H206.262V39ZM188.909 21V20H188.909L188.909 21ZM171.558 39V40H172.703L172.548 38.865L171.558 39ZM154.892 39L153.901 38.865L153.746 40H154.892V39ZM137.539 21V20H137.539L137.539 21ZM120.188 39V40H121.333L121.178 38.865L120.188 39ZM103.521 39L102.53 38.865L102.375 40H103.521V39ZM86.168 21V20H86.168L86.168 21ZM68.8164 39V40H69.962L69.8072 38.865L68.8164 39ZM53.2432 39L52.2523 38.865L52.0976 40H53.2432V39ZM35.8916 21L35.8916 20H35.8916V21ZM18.5391 39V40H19.6846L19.5299 38.865L18.5391 39ZM1.87305 39L0.88221 38.865L0.727505 40H1.87305V39ZM-15.4785 21L-15.4785 20H-15.4785V21ZM-32.8311 39V40H-31.6855L-31.8402 38.865L-32.8311 39ZM-54 39H-55V40H-54V39ZM-54 -56V-57H-55V-56H-54ZM-28.5947 -38V-39H-28.5947L-28.5947 -38ZM-28.5947 -6L-28.5947 -5H-28.5947V-6ZM1439.28 -41V-42V-41ZM1439.28 -9V-8V-9ZM-40.1602 -56L-40.7884 -55.222C-37.5275 -52.5891 -33.2574 -51.0001 -28.5947 -51L-28.5947 -52L-28.5947 -53C-32.801 -53.0001 -36.6276 -54.433 -39.5319 -56.778L-40.1602 -56ZM-28.5947 -52V-51C-23.9319 -51 -19.6611 -52.589 -16.4001 -55.222L-17.0283 -56L-17.6565 -56.778C-20.561 -54.4329 -24.3882 -53 -28.5947 -53V-52ZM-17.0283 -56V-55H1433.18V-56V-57H-17.0283V-56ZM1433.18 -56L1432.86 -55.0533C1434.86 -54.3722 1437.03 -54 1439.28 -54V-55V-56C1437.25 -56 1435.3 -56.3356 1433.51 -56.9467L1433.18 -56ZM1439.28 -55V-54C1441.54 -54 1443.7 -54.3721 1445.7 -55.0533L1445.38 -56L1445.06 -56.9467C1443.26 -56.3356 1441.32 -56 1439.28 -56V-55ZM1445.38 -56V-55H1495V-56V-57H1445.38V-56ZM1495 -56H1494V39H1495H1496V-56H1495ZM1495 39V38H1431.5V39V40H1495V39ZM1431.5 39L1432.49 39.135C1432.58 38.4357 1432.63 37.7231 1432.63 37H1431.63H1430.63C1430.63 37.6315 1430.59 38.2539 1430.5 38.865L1431.5 39ZM1431.63 37H1432.63C1432.63 27.5293 1424.27 20 1414.14 20V21V22C1423.33 22 1430.63 28.7976 1430.63 37H1431.63ZM1414.14 21V20C1404.02 20.0002 1395.66 27.5294 1395.66 37H1396.66H1397.66C1397.66 28.7976 1404.95 22.0001 1414.14 22V21ZM1396.66 37H1395.66C1395.66 37.7231 1395.7 38.4357 1395.8 39.135L1396.79 39L1397.78 38.865C1397.7 38.2539 1397.66 37.6316 1397.66 37H1396.66ZM1396.79 39V38H1380.12V39V40H1396.79V39ZM1380.12 39L1381.12 39.135C1381.21 38.4357 1381.26 37.7231 1381.26 37H1380.26H1379.26C1379.26 37.6315 1379.22 38.2539 1379.13 38.865L1380.12 39ZM1380.26 37H1381.26C1381.26 27.5293 1372.9 20 1362.77 20V21V22C1371.96 22 1379.26 28.7976 1379.26 37H1380.26ZM1362.77 21V20C1352.65 20.0001 1344.29 27.5294 1344.29 37H1345.29H1346.29C1346.29 28.7976 1353.58 22.0001 1362.77 22V21ZM1345.29 37H1344.29C1344.29 37.7231 1344.33 38.4357 1344.43 39.135L1345.42 39L1346.41 38.865C1346.33 38.2539 1346.29 37.6316 1346.29 37H1345.29ZM1345.42 39V38H1328.75V39V40H1345.42V39ZM1328.75 39L1329.75 39.135C1329.84 38.4357 1329.89 37.7231 1329.89 37H1328.89H1327.89C1327.89 37.6315 1327.85 38.2539 1327.76 38.865L1328.75 39ZM1328.89 37H1329.89C1329.89 27.5293 1321.53 20 1311.4 20V21V22C1320.59 22 1327.89 28.7976 1327.89 37H1328.89ZM1311.4 21V20C1301.28 20.0001 1292.92 27.5294 1292.92 37H1293.92H1294.92C1294.92 28.7976 1302.21 22.0001 1311.4 22V21ZM1293.92 37H1292.92C1292.92 37.7231 1292.96 38.4357 1293.06 39.135L1294.05 39L1295.04 38.865C1294.96 38.2539 1294.92 37.6316 1294.92 37H1293.92ZM1294.05 39V38H1277.38V39V40H1294.05V39ZM1277.38 39L1278.37 39.135C1278.47 38.4357 1278.52 37.7231 1278.52 37H1277.52H1276.52C1276.52 37.6316 1276.48 38.2539 1276.39 38.865L1277.38 39ZM1277.52 37H1278.52C1278.52 27.5294 1270.16 20.0002 1260.03 20V21V22C1269.22 22.0002 1276.52 28.7976 1276.52 37H1277.52ZM1260.03 21V20C1249.91 20 1241.54 27.5293 1241.54 37H1242.54H1243.54C1243.54 28.7976 1250.84 22 1260.03 22V21ZM1242.54 37H1241.54C1241.54 37.7231 1241.59 38.4357 1241.69 39.135L1242.68 39L1243.67 38.865C1243.59 38.2539 1243.54 37.6315 1243.54 37H1242.54ZM1242.68 39V38H1226.01V39V40H1242.68V39ZM1226.01 39L1227 39.135C1227.1 38.4357 1227.15 37.7231 1227.15 37H1226.15H1225.15C1225.15 37.6316 1225.11 38.2539 1225.02 38.865L1226.01 39ZM1226.15 37H1227.15C1227.15 27.5295 1218.79 20.0002 1208.66 20V21V22C1217.85 22.0002 1225.15 28.7977 1225.15 37H1226.15ZM1208.66 21V20C1198.54 20 1190.17 27.5293 1190.17 37H1191.17H1192.17C1192.17 28.7976 1199.47 22 1208.66 22V21ZM1191.17 37H1190.17C1190.17 37.7231 1190.22 38.4357 1190.32 39.135L1191.31 39L1192.3 38.865C1192.22 38.2539 1192.17 37.6315 1192.17 37H1191.17ZM1191.31 39V38H1176.83V39V40H1191.31V39ZM1176.83 39L1177.82 39.135C1177.92 38.4357 1177.97 37.7231 1177.97 37H1176.97H1175.97C1175.97 37.6315 1175.92 38.2539 1175.84 38.865L1176.83 39ZM1176.97 37H1177.97C1177.97 27.5293 1169.6 20 1159.48 20V21V22C1168.67 22 1175.97 28.7976 1175.97 37H1176.97ZM1159.48 21V20C1149.35 20.0001 1140.99 27.5294 1140.99 37H1141.99H1142.99C1142.99 28.7976 1150.29 22.0001 1159.48 22V21ZM1141.99 37H1140.99C1140.99 37.7231 1141.04 38.4357 1141.14 39.135L1142.13 39L1143.12 38.865C1143.03 38.2539 1142.99 37.6316 1142.99 37H1141.99ZM1142.13 39V38H1125.46V39V40H1142.13V39ZM1125.46 39L1126.45 39.135C1126.55 38.4357 1126.6 37.7231 1126.6 37H1125.6H1124.6C1124.6 37.6315 1124.55 38.2539 1124.47 38.865L1125.46 39ZM1125.6 37H1126.6C1126.6 27.5293 1118.23 20 1108.11 20V21V22C1117.3 22 1124.6 28.7976 1124.6 37H1125.6ZM1108.11 21V20C1097.98 20.0001 1089.62 27.5294 1089.62 37H1090.62H1091.62C1091.62 28.7976 1098.92 22.0001 1108.11 22V21ZM1090.62 37H1089.62C1089.62 37.7231 1089.67 38.4357 1089.77 39.135L1090.76 39L1091.75 38.865C1091.66 38.2539 1091.62 37.6316 1091.62 37H1090.62ZM1090.76 39V38H1074.09V39V40H1090.76V39ZM1074.09 39L1075.08 39.135C1075.18 38.4348 1075.22 37.7221 1075.22 37H1074.22H1073.22C1073.22 37.6325 1073.18 38.2549 1073.1 38.865L1074.09 39ZM1074.22 37H1075.22C1075.22 27.5294 1066.86 20 1056.74 20V21V22C1065.93 22 1073.22 28.7975 1073.22 37H1074.22ZM1056.74 21V20C1046.61 20 1038.25 27.5294 1038.25 37H1039.25H1040.25C1040.25 28.7975 1047.55 22 1056.74 22V21ZM1039.25 37H1038.25C1038.25 37.7221 1038.3 38.4348 1038.39 39.135L1039.38 39L1040.38 38.865C1040.29 38.2549 1040.25 37.6325 1040.25 37H1039.25ZM1039.38 39V38H1022.72V39V40H1039.38V39ZM1022.72 39L1023.71 39.135C1023.8 38.4357 1023.85 37.7231 1023.85 37H1022.85H1021.85C1021.85 37.6316 1021.81 38.2539 1021.73 38.865L1022.72 39ZM1022.85 37H1023.85C1023.85 27.5295 1015.49 20.0002 1005.37 20V21V22C1014.56 22.0002 1021.85 28.7977 1021.85 37H1022.85ZM1005.37 21V20C995.242 20 986.879 27.5293 986.879 37H987.879H988.879C988.879 28.7976 996.176 22 1005.37 22V21ZM987.879 37H986.879C986.879 37.7231 986.928 38.4357 987.024 39.135L988.015 39L989.005 38.865C988.922 38.2539 988.879 37.6315 988.879 37H987.879ZM988.015 39V38H971.349V39V40H988.015V39ZM971.349 39L972.339 39.135C972.435 38.4357 972.484 37.7231 972.484 37H971.484H970.484C970.484 37.6316 970.441 38.2539 970.358 38.865L971.349 39ZM971.484 37H972.484C972.484 27.5293 964.121 20 953.996 20V21V22C963.188 22 970.484 28.7976 970.484 37H971.484ZM953.996 21V20C943.871 20.0002 935.509 27.5295 935.509 37H936.509H937.509C937.509 28.7977 944.805 22.0002 953.996 22V21ZM936.509 37H935.509C935.509 37.7231 935.558 38.4357 935.654 39.135L936.645 39L937.635 38.865C937.552 38.2539 937.509 37.6316 937.509 37H936.509ZM936.645 39V38H919.979V39V40H936.645V39ZM919.979 39L920.969 39.135C921.065 38.4357 921.114 37.7231 921.114 37H920.114H919.114C919.114 37.6316 919.071 38.2539 918.988 38.865L919.979 39ZM920.114 37H921.114C921.114 27.5293 912.751 20 902.626 20V21V22C911.818 22 919.114 28.7976 919.114 37H920.114ZM902.626 21V20C892.501 20.0002 884.139 27.5295 884.139 37H885.139H886.139C886.139 28.7977 893.435 22.0002 902.626 22V21ZM885.139 37H884.139C884.139 37.7231 884.188 38.4357 884.284 39.135L885.274 39L886.265 38.865C886.182 38.2539 886.139 37.6316 886.139 37H885.139ZM885.274 39V38H868.609V39V40H885.274V39ZM868.609 39L869.6 39.135C869.696 38.4357 869.745 37.7231 869.745 37H868.745H867.745C867.745 37.6315 867.702 38.2539 867.619 38.865L868.609 39ZM868.745 37H869.745C869.745 27.5293 861.382 20 851.257 20V21V22C860.448 22 867.745 28.7976 867.745 37H868.745ZM851.257 21V20C841.132 20.0002 832.77 27.5295 832.77 37H833.77H834.77C834.77 28.7977 842.066 22.0002 851.257 22V21ZM833.77 37H832.77C832.77 37.7231 832.819 38.4357 832.914 39.135L833.905 39L834.896 38.865C834.813 38.2539 834.77 37.6316 834.77 37H833.77ZM833.905 39V38H817.238V39V40H833.905V39ZM817.238 39L818.229 39.135C818.324 38.4357 818.374 37.7231 818.374 37H817.374H816.374C816.374 37.6315 816.331 38.2539 816.247 38.865L817.238 39ZM817.374 37H818.374C818.374 27.5293 810.011 20 799.886 20V21V22C809.077 22 816.374 28.7976 816.374 37H817.374ZM799.886 21V20C789.761 20.0002 781.398 27.5294 781.398 37H782.398H783.398C783.398 28.7977 790.694 22.0002 799.886 22V21ZM782.398 37H781.398C781.398 37.7231 781.448 38.4357 781.543 39.135L782.534 39L783.525 38.865C783.442 38.2539 783.398 37.6316 783.398 37H782.398ZM782.534 39V38H765.868V39V40H782.534V39ZM765.868 39L766.859 39.135C766.954 38.4357 767.004 37.7231 767.004 37H766.004H765.004C765.004 37.6315 764.961 38.2539 764.877 38.865L765.868 39ZM766.004 37H767.004C767.004 27.5293 758.641 20 748.516 20V21V22C757.707 22 765.004 28.7976 765.004 37H766.004ZM748.516 21V20C738.391 20.0002 730.028 27.5295 730.028 37H731.028H732.028C732.028 28.7977 739.324 22.0002 748.516 22V21ZM731.028 37H730.028C730.028 37.7231 730.078 38.4357 730.173 39.135L731.164 39L732.155 38.865C732.072 38.2539 732.028 37.6316 732.028 37H731.028ZM731.164 39V38H714.498V39V40H731.164V39ZM714.498 39L715.489 39.135C715.584 38.4357 715.634 37.7231 715.634 37H714.634H713.634C713.634 37.6315 713.591 38.2539 713.507 38.865L714.498 39ZM714.634 37H715.634C715.634 27.5293 707.27 20 697.146 20V21V22C706.337 22 713.634 28.7976 713.634 37H714.634ZM697.146 21V20C687.021 20.0002 678.658 27.5295 678.658 37H679.658H680.658C680.658 28.7977 687.954 22.0002 697.146 22V21ZM679.658 37H678.658C678.658 37.7231 678.708 38.4357 678.803 39.135L679.794 39L680.785 38.865C680.701 38.2539 680.658 37.6316 680.658 37H679.658ZM679.794 39V38H663.128V39V40H679.794V39ZM663.128 39L664.119 39.135C664.214 38.4357 664.264 37.7231 664.264 37H663.264H662.264C662.264 37.6315 662.22 38.2539 662.137 38.865L663.128 39ZM663.264 37H664.264C664.264 27.5293 655.9 20 645.775 20V21V22C654.967 22 662.264 28.7976 662.264 37H663.264ZM645.775 21V20C635.651 20.0002 627.288 27.5295 627.288 37H628.288H629.288C629.288 28.7977 636.584 22.0002 645.775 22V21ZM628.288 37H627.288C627.288 37.7231 627.338 38.4357 627.433 39.135L628.424 39L629.415 38.865C629.331 38.2539 629.288 37.6316 629.288 37H628.288ZM628.424 39V38H613.943V39V40H628.424V39ZM613.943 39L614.934 39.135C615.03 38.4357 615.079 37.7231 615.079 37H614.079H613.079C613.079 37.6315 613.036 38.2539 612.953 38.865L613.943 39ZM614.079 37H615.079C615.079 27.5293 606.716 20 596.591 20V21V22C605.782 22 613.079 28.7976 613.079 37H614.079ZM596.591 21V20C586.466 20.0002 578.104 27.5295 578.104 37H579.104H580.104C580.104 28.7977 587.4 22.0002 596.591 22V21ZM579.104 37H578.104C578.104 37.7231 578.153 38.4357 578.248 39.135L579.239 39L580.23 38.865C580.147 38.2539 580.104 37.6316 580.104 37H579.104ZM579.239 39V38H562.573V39V40H579.239V39ZM562.573 39L563.564 39.135C563.659 38.4357 563.709 37.7231 563.709 37H562.709H561.709C561.709 37.6315 561.666 38.2539 561.582 38.865L562.573 39ZM562.709 37H563.709C563.709 27.5293 555.346 20 545.221 20V21V22C554.412 22 561.709 28.7976 561.709 37H562.709ZM545.221 21V20C535.096 20.0002 526.733 27.5295 526.733 37H527.733H528.733C528.733 28.7977 536.029 22.0002 545.221 22V21ZM527.733 37H526.733C526.733 37.7231 526.783 38.4357 526.878 39.135L527.869 39L528.86 38.865C528.777 38.2539 528.733 37.6316 528.733 37H527.733ZM527.869 39V38H511.203V39V40H527.869V39ZM511.203 39L512.194 39.135C512.289 38.4357 512.339 37.7231 512.339 37H511.339H510.339C510.339 37.6315 510.296 38.2539 510.212 38.865L511.203 39ZM511.339 37H512.339C512.339 27.5293 503.975 20 493.851 20V21V22C503.042 22 510.339 28.7976 510.339 37H511.339ZM493.851 21V20C483.726 20.0002 475.363 27.5295 475.363 37H476.363H477.363C477.363 28.7977 484.659 22.0002 493.851 22V21ZM476.363 37H475.363C475.363 37.7231 475.413 38.4357 475.508 39.135L476.499 39L477.49 38.865C477.407 38.2539 477.363 37.6316 477.363 37H476.363ZM476.499 39V38H459.833V39V40H476.499V39ZM459.833 39L460.824 39.135C460.919 38.4357 460.969 37.7231 460.969 37H459.969H458.969C458.969 37.6315 458.925 38.2539 458.842 38.865L459.833 39ZM459.969 37H460.969C460.969 27.5293 452.605 20 442.48 20V21V22C451.672 22 458.969 28.7976 458.969 37H459.969ZM442.48 21L442.48 20C432.356 20.0002 423.993 27.5295 423.993 37H424.993H425.993C425.993 28.7977 433.289 22.0002 442.48 22L442.48 21ZM424.993 37H423.993C423.993 37.7231 424.043 38.4357 424.138 39.135L425.129 39L426.12 38.865C426.036 38.2539 425.993 37.6316 425.993 37H424.993ZM425.129 39V38H408.463V39V40H425.129V39ZM408.463 39L409.454 39.135C409.549 38.4357 409.599 37.7231 409.599 37H408.599H407.599C407.599 37.6315 407.555 38.2539 407.472 38.865L408.463 39ZM408.599 37H409.599C409.599 27.5293 401.235 20 391.11 20V21V22C400.302 22 407.599 28.7976 407.599 37H408.599ZM391.11 21V20C380.985 20.0001 372.623 27.5294 372.623 37H373.623H374.623C374.623 28.7976 381.919 22.0001 391.11 22V21ZM373.623 37H372.623C372.623 37.7231 372.673 38.4357 372.768 39.135L373.759 39L374.75 38.865C374.666 38.2539 374.623 37.6316 374.623 37H373.623ZM373.759 39V38H358.186V39V40H373.759V39ZM358.186 39L359.176 39.135C359.272 38.4357 359.321 37.7231 359.321 37H358.321H357.321C357.321 37.6316 357.278 38.2539 357.195 38.865L358.186 39ZM358.321 37H359.321C359.321 27.5293 350.958 20 340.833 20V21V22C350.025 22 357.321 28.7976 357.321 37H358.321ZM340.833 21L340.833 20C330.708 20.0002 322.346 27.5295 322.346 37H323.346H324.346C324.346 28.7977 331.642 22.0002 340.833 22L340.833 21ZM323.346 37H322.346C322.346 37.7231 322.395 38.4357 322.491 39.135L323.481 39L324.472 38.865C324.389 38.2539 324.346 37.6316 324.346 37H323.346ZM323.481 39V38H309.002V39V40H323.481V39ZM309.002 39L309.993 39.135C310.088 38.4357 310.138 37.7231 310.138 37H309.138H308.138C308.138 37.6315 308.094 38.2539 308.011 38.865L309.002 39ZM309.138 37H310.138C310.138 27.5293 301.774 20 291.649 20V21V22C300.841 22 308.138 28.7976 308.138 37H309.138ZM291.649 21L291.649 20C281.525 20.0002 273.162 27.5295 273.162 37H274.162H275.162C275.162 28.7977 282.458 22.0002 291.649 22L291.649 21ZM274.162 37H273.162C273.162 37.7231 273.212 38.4357 273.307 39.135L274.298 39L275.289 38.865C275.205 38.2539 275.162 37.6316 275.162 37H274.162ZM274.298 39V38H257.632V39V40H274.298V39ZM257.632 39L258.623 39.135C258.718 38.4357 258.768 37.7231 258.768 37H257.768H256.768C256.768 37.6315 256.724 38.2539 256.641 38.865L257.632 39ZM257.768 37H258.768C258.768 27.5293 250.404 20 240.279 20V21V22C249.471 22 256.768 28.7976 256.768 37H257.768ZM240.279 21L240.279 20C230.155 20.0002 221.792 27.5295 221.792 37H222.792H223.792C223.792 28.7977 231.088 22.0002 240.279 22L240.279 21ZM222.792 37H221.792C221.792 37.7231 221.842 38.4357 221.937 39.135L222.928 39L223.919 38.865C223.835 38.2539 223.792 37.6316 223.792 37H222.792ZM222.928 39V38H206.262V39V40H222.928V39ZM206.262 39L207.253 39.135C207.348 38.4357 207.397 37.7231 207.397 37H206.397H205.397C205.397 37.6315 205.354 38.2539 205.271 38.865L206.262 39ZM206.397 37H207.397C207.397 27.5293 199.034 20 188.909 20V21V22C198.101 22 205.397 28.7976 205.397 37H206.397ZM188.909 21L188.909 20C178.784 20.0002 170.422 27.5295 170.422 37H171.422H172.422C172.422 28.7977 179.718 22.0002 188.909 22L188.909 21ZM171.422 37H170.422C170.422 37.7231 170.471 38.4357 170.567 39.135L171.558 39L172.548 38.865C172.465 38.2539 172.422 37.6316 172.422 37H171.422ZM171.558 39V38H154.892V39V40H171.558V39ZM154.892 39L155.882 39.135C155.978 38.4357 156.027 37.7231 156.027 37H155.027H154.027C154.027 37.6315 153.984 38.2539 153.901 38.865L154.892 39ZM155.027 37H156.027C156.027 27.5293 147.664 20 137.539 20V21V22C146.731 22 154.027 28.7976 154.027 37H155.027ZM137.539 21L137.539 20C127.414 20.0002 119.052 27.5295 119.052 37H120.052H121.052C121.052 28.7977 128.348 22.0002 137.539 22L137.539 21ZM120.052 37H119.052C119.052 37.7231 119.101 38.4357 119.197 39.135L120.188 39L121.178 38.865C121.095 38.2539 121.052 37.6316 121.052 37H120.052ZM120.188 39V38H103.521V39V40H120.188V39ZM103.521 39L104.511 39.135C104.607 38.4357 104.656 37.7231 104.656 37H103.656H102.656C102.656 37.6315 102.613 38.2539 102.53 38.865L103.521 39ZM103.656 37H104.656C104.656 27.5293 96.2929 20 86.168 20V21V22C95.3595 22 102.656 28.7976 102.656 37H103.656ZM86.168 21L86.168 20C76.0432 20.0002 67.6807 27.5295 67.6807 37H68.6807H69.6807C69.6807 28.7977 76.9767 22.0002 86.168 22L86.168 21ZM68.6807 37H67.6807C67.6807 37.7231 67.7302 38.4357 67.8256 39.135L68.8164 39L69.8072 38.865C69.724 38.2539 69.6807 37.6316 69.6807 37H68.6807ZM68.8164 39V38H53.2432V39V40H68.8164V39ZM53.2432 39L54.234 39.135C54.3293 38.4357 54.3789 37.7231 54.3789 37H53.3789H52.3789C52.3789 37.6316 52.3356 38.2539 52.2523 38.865L53.2432 39ZM53.3789 37H54.3789C54.3789 27.5294 46.0164 20.0002 35.8916 20L35.8916 21L35.8916 22C45.0829 22.0002 52.3789 28.7976 52.3789 37H53.3789ZM35.8916 21V20C25.7667 20 17.4033 27.5293 17.4033 37H18.4033H19.4033C19.4033 28.7976 26.7001 22 35.8916 22V21ZM18.4033 37H17.4033C17.4033 37.7231 17.4529 38.4357 17.5482 39.135L18.5391 39L19.5299 38.865C19.4466 38.2539 19.4033 37.6315 19.4033 37H18.4033ZM18.5391 39V38H1.87305V39V40H18.5391V39ZM1.87305 39L2.86388 39.135C2.95921 38.4357 3.00879 37.7231 3.00879 37H2.00879H1.00879C1.00879 37.6316 0.965496 38.2539 0.88221 38.865L1.87305 39ZM2.00879 37H3.00879C3.00879 27.5294 -5.35373 20.0002 -15.4785 20L-15.4785 21L-15.4785 22C-6.28724 22.0002 1.00879 28.7977 1.00879 37H2.00879ZM-15.4785 21V20C-25.6034 20 -33.9668 27.5293 -33.9668 37H-32.9668H-31.9668C-31.9668 28.7976 -24.67 22 -15.4785 22V21ZM-32.9668 37H-33.9668C-33.9668 37.7231 -33.9172 38.4357 -33.8219 39.135L-32.8311 39L-31.8402 38.865C-31.9235 38.2539 -31.9668 37.6315 -31.9668 37H-32.9668ZM-32.8311 39V38H-54V39V40H-32.8311V39ZM-54 39H-53V-56H-54H-55V39H-54ZM-54 -56V-55H-40.1602V-56V-57H-54V-56ZM-28.5947 -38L-28.5947 -39C-38.7195 -38.9998 -47.082 -31.4705 -47.082 -22H-46.082H-45.082C-45.082 -30.2023 -37.786 -36.9998 -28.5947 -37L-28.5947 -38ZM-46.082 -22H-47.082C-47.082 -12.5295 -38.7195 -5.00022 -28.5947 -5L-28.5947 -6L-28.5947 -7C-37.786 -7.00019 -45.082 -13.7977 -45.082 -22H-46.082ZM-28.5947 -6V-5C-18.4698 -5 -10.1064 -12.5293 -10.1064 -22H-11.1064H-12.1064C-12.1064 -13.7976 -19.4032 -7 -28.5947 -7V-6ZM-11.1064 -22H-10.1064C-10.1064 -31.4707 -18.4698 -39 -28.5947 -39V-38V-37C-19.4032 -37 -12.1064 -30.2024 -12.1064 -22H-11.1064ZM1439.28 -41V-42C1429.16 -42 1420.79 -34.4707 1420.79 -25H1421.79H1422.79C1422.79 -33.2024 1430.09 -40 1439.28 -40V-41ZM1421.79 -25H1420.79C1420.79 -15.5293 1429.16 -8 1439.28 -8V-9V-10C1430.09 -10 1422.79 -16.7976 1422.79 -25H1421.79ZM1439.28 -9V-8C1449.41 -8.0001 1457.77 -15.5294 1457.77 -25H1456.77H1455.77C1455.77 -16.7976 1448.47 -10.0001 1439.28 -10V-9ZM1456.77 -25H1457.77C1457.77 -34.4706 1449.41 -41.9999 1439.28 -42V-41V-40C1448.47 -39.9999 1455.77 -33.2024 1455.77 -25H1456.77Z" fill="#A3AAB9" mask="url(#path-1-inside-1_1232_15157)"/>
</svg>
