<svg width="152" height="152" viewBox="0 0 152 152" fill="none" xmlns="http://www.w3.org/2000/svg">
<g filter="url(#filter0_di_1212_15697)">
<path d="M62 16.8335C75.6072 16.8337 86.666 27.8932 86.666 41.5005V41.5103C86.614 54.8391 76.1764 65.6512 62.8809 66.1187L62.8369 66.1206H62.2598L62.0557 66.0864C62.0818 66.0908 62.0604 66.0855 61.9883 66.0854C61.9211 66.0854 61.8378 66.0901 61.75 66.1011L61.5527 66.1255L61.3535 66.1187C47.7982 65.6528 37.3332 54.8584 37.333 41.5005C37.333 27.8931 48.3926 16.8335 62 16.8335Z" fill="#0064E2" stroke="white" stroke-width="5"/>
<path d="M97.3535 91.0137C97.3534 97.8386 93.4816 103.857 87.1045 108.159L87.0996 108.162C80.0708 112.881 70.9718 115.167 62 115.167C53.0307 115.167 43.9343 112.883 36.9062 108.166C30.5213 103.909 26.6465 97.8875 26.6465 91.1064C26.6466 84.3287 30.5177 78.2607 36.9492 73.9561L36.96 73.9482C44.0082 69.283 53.1021 67.0234 62.0586 67.0234C71.0142 67.0235 80.0876 69.2832 87.0928 73.9531C93.4922 78.2194 97.2986 84.2391 97.3535 90.9932V91.0137Z" fill="#0064E2" stroke="white" stroke-width="5"/>
<path d="M94.9639 26.5029C105.32 25.6047 114.572 33.1779 115.729 43.5439L115.777 44.04L115.778 44.0479C116.634 54.4237 109.243 63.5598 98.9785 64.7959L98.8301 64.8135H98.3652L98.1963 64.8818L97.7822 64.9033C92.6363 65.1686 87.8526 63.5224 84.2266 60.4375L82.042 58.5791L84.1816 56.6689C88.4121 52.8901 90.8514 47.2102 90.3545 40.999V40.998C90.0639 37.6709 88.9123 34.6229 87.1729 32.0137L85.6025 29.6572L88.1357 28.3906C90.2128 27.3521 92.5743 26.7149 94.959 26.5029H94.9639Z" fill="#6BAFFF" stroke="white" stroke-width="5"/>
<path d="M84.5918 67.2856C95.5713 64.1061 109.416 66.1764 118.12 73.1987H118.121C122.869 77.0176 125.618 82.1018 125.111 87.6245L125.112 87.6255C124.653 93.1913 121.094 97.764 115.702 100.719L115.701 100.718C110.577 103.536 104.245 104.814 98.0605 104.666L91.7881 104.515L96.4453 100.311C99.3887 97.6537 101.015 94.435 101.324 91.1089C101.697 86.3517 99.4726 81.5624 94.4697 77.5278L93.9219 77.104C91.1523 75.0124 87.9456 73.3176 84.4307 72.0356L77.2422 69.4136L84.5918 67.2856Z" fill="#6BAFFF" stroke="white" stroke-width="5"/>
</g>
<defs>
<filter id="filter0_di_1212_15697" x="0.146484" y="0.333496" width="151.526" height="151.333" filterUnits="userSpaceOnUse" color-interpolation-filters="sRGB">
<feFlood flood-opacity="0" result="BackgroundImageFix"/>
<feColorMatrix in="SourceAlpha" type="matrix" values="0 0 0 0 0 0 0 0 0 0 0 0 0 0 0 0 0 0 127 0" result="hardAlpha"/>
<feOffset dy="10"/>
<feGaussianBlur stdDeviation="12"/>
<feComposite in2="hardAlpha" operator="out"/>
<feColorMatrix type="matrix" values="0 0 0 0 0 0 0 0 0 0.392157 0 0 0 0 0.886275 0 0 0 0.3 0"/>
<feBlend mode="normal" in2="BackgroundImageFix" result="effect1_dropShadow_1212_15697"/>
<feBlend mode="normal" in="SourceGraphic" in2="effect1_dropShadow_1212_15697" result="shape"/>
<feColorMatrix in="SourceAlpha" type="matrix" values="0 0 0 0 0 0 0 0 0 0 0 0 0 0 0 0 0 0 127 0" result="hardAlpha"/>
<feOffset dx="6" dy="8"/>
<feGaussianBlur stdDeviation="6"/>
<feComposite in2="hardAlpha" operator="arithmetic" k2="-1" k3="1"/>
<feColorMatrix type="matrix" values="0 0 0 0 1 0 0 0 0 1 0 0 0 0 1 0 0 0 0.35 0"/>
<feBlend mode="normal" in2="shape" result="effect2_innerShadow_1212_15697"/>
</filter>
</defs>
</svg>
