<svg width="418" height="413" viewBox="0 0 418 413" fill="none" xmlns="http://www.w3.org/2000/svg">
<path fill-rule="evenodd" clip-rule="evenodd" d="M166.106 239.768C164.532 239.483 163.333 239.84 163.032 240.938C162.552 242.687 164.174 244.447 165.153 245.621C168.375 249.478 171.607 252.112 175.25 255.577C178.964 259.11 181.825 261.643 185.883 265.158C187.168 266.271 188.84 267.689 190.486 267.048C194.527 265.476 188.625 259.893 187.729 258.912C182.597 253.286 177.031 247.289 170.916 242.559C169.463 241.443 167.789 240.067 166.106 239.768Z" fill="#FCB322"/>
<path fill-rule="evenodd" clip-rule="evenodd" d="M221.54 227.887C221.48 227.914 221.405 227.699 221.243 227.852C218.628 230.353 216.906 233.874 214.74 237.011C210.725 242.813 206.963 249.006 203.841 255.271C202.513 257.954 199.363 262.714 201.06 264.725C203.85 268.008 207.786 260.245 209.065 258.152C213.285 251.293 216.875 245.297 220.275 238.567C220.956 237.22 221.81 235.525 222.814 233.601C223.741 231.851 225.132 229.986 224.309 228.666C223.468 227.324 222.618 227.414 221.54 227.887Z" fill="#FCB322"/>
<path fill-rule="evenodd" clip-rule="evenodd" d="M165.615 273.147C164.232 273.387 162.846 273.768 162.951 275.295C163.117 277.787 166.841 278.203 168.806 278.566C171.441 279.045 173.173 279.22 176.003 279.634C178.053 279.937 180.342 280.427 183.199 280.705C185.306 280.91 190.132 281.037 190.286 278.994C190.458 276.709 187.484 275.996 185.316 275.506C180.543 274.428 177.27 273.723 172.78 273.289C170.452 273.061 167.994 272.742 165.615 273.147Z" fill="#FCB322"/>
<path fill-rule="evenodd" clip-rule="evenodd" d="M235.572 297.098C236.168 294.688 231.887 291.821 230.352 290.509C226.829 287.523 222.794 285.2 218.476 282.378C216.543 281.109 213.852 278.779 211.643 279.963C211.104 280.254 210.479 281.648 210.489 282.009C210.532 283.921 213.35 285.7 214.91 286.966C218.205 289.62 221.671 292.311 225.095 294.549C226.968 295.776 228.491 297.262 230.327 297.969C232.069 298.65 235.072 299.139 235.572 297.098Z" fill="#FCB322"/>
<path fill-rule="evenodd" clip-rule="evenodd" d="M210.414 297.161C212.609 297.581 213.84 300.84 214.515 302.094C216.054 304.972 216.892 307.923 218.072 311.189C218.601 312.653 219.822 314.866 218.208 315.716C217.814 315.928 216.466 315.839 216.166 315.721C214.57 315.106 213.857 312.997 213.226 311.739C211.9 309.093 210.592 306.336 209.662 303.756C209.145 302.336 208.323 301.029 208.225 299.795C208.145 298.623 208.561 296.811 210.414 297.161Z" fill="#FCB322"/>
<path fill-rule="evenodd" clip-rule="evenodd" d="M232.902 266.777C231.979 268.814 228.524 269.255 227.143 269.62C223.989 270.445 220.923 270.577 217.472 270.964C215.931 271.138 213.498 271.812 213.039 270.044C212.924 269.613 213.322 268.324 213.508 268.056C214.478 266.65 216.695 266.447 218.064 266.123C220.946 265.453 223.931 264.82 226.659 264.515C228.157 264.344 229.623 263.844 230.844 264.039C232.008 264.23 233.672 265.056 232.902 266.777Z" fill="#FCB322"/>
<path fill-rule="evenodd" clip-rule="evenodd" d="M184.731 291.717C182.651 291.237 180.317 293.61 179.245 294.451C176.792 296.373 174.923 298.627 172.634 301.027C171.609 302.099 169.687 303.562 170.765 304.931C171.033 305.267 172.24 305.708 172.554 305.724C174.183 305.802 175.62 304.23 176.652 303.376C178.833 301.572 181.036 299.666 182.848 297.773C183.844 296.73 185.069 295.902 185.625 294.861C186.151 293.869 186.487 292.121 184.731 291.717Z" fill="#FCB322"/>
<path fill-rule="evenodd" clip-rule="evenodd" d="M192.966 346.199C192.222 347.225 192.642 348.933 192.521 350.404C192.111 355.46 191.316 360.632 190.726 365.949C189.322 378.54 188.728 392.775 187.918 406.487C187.781 408.69 187.268 413.064 189.902 413C192.334 412.939 192.179 408.608 192.466 406.192C194.408 389.463 195.495 372.92 195.911 354.693C195.972 351.869 197.075 349.303 196.624 346.656C195.894 345.811 194.001 345.684 192.966 346.199Z" fill="#2F3F9A"/>
<path fill-rule="evenodd" clip-rule="evenodd" d="M199.292 271.666C196.103 271.049 195.074 275.158 194.361 278.535C192.32 288.135 192.302 299.21 191.873 310.315C191.486 320.636 191.334 332.256 191.638 344.228C191.709 347.2 191.148 353.33 193.875 353.656C196.425 353.959 197.13 349.981 197.734 347.36C200.845 333.842 201.96 317.976 202.63 302.937C202.93 296.314 203.385 290.17 203.251 283.96C203.157 279.654 202.956 272.375 199.292 271.666Z" fill="#768BE5"/>
<path d="M257.895 182.294C256.856 182.388 255.839 182.775 254.87 183.447C254.53 183.683 254.11 183.769 253.706 183.689C253.304 183.611 252.95 183.372 252.724 183.027C250.419 179.484 248.871 176.168 247.359 172.805C247.142 172.325 247.185 171.774 247.476 171.338C248.603 169.639 249.687 168.093 250.736 166.599C253.853 162.148 256.548 158.302 258.491 153.037C261.815 144.042 260.786 136.103 255.343 128.764C252.679 125.167 248.134 121.618 242.545 118.757C240.118 117.515 235.593 115.201 232.056 115.519C230.923 115.621 229.988 115.978 229.201 116.613C227.675 117.843 227.574 120.247 228.433 121.64C229.353 123.13 231.116 123.47 233.153 123.866C234.405 124.106 235.702 124.356 236.901 124.907C240.953 126.766 249.07 132.455 250.816 140.681C252.13 146.854 249.103 151.774 245.902 156.986C245.18 158.162 244.432 159.382 243.729 160.623C243.463 161.097 242.975 161.386 242.414 161.396C241.869 161.4 241.365 161.111 241.092 160.644C236.38 152.598 232.146 144.755 228.503 137.336L228.353 137.033C226.404 133.041 224.191 128.522 221.281 128.78C220.881 128.819 220.451 128.936 220.004 129.141C218.368 129.866 217.217 131.668 217.044 132.99C216.669 135.801 219.875 141.529 222.449 146.128C223.232 147.522 223.988 148.881 224.656 150.155C228.478 157.431 231.632 163.361 234.579 168.673C234.878 169.206 234.823 169.874 234.44 170.356C231.638 173.891 227.132 176.988 222.77 179.986C222.043 180.484 221.315 180.986 220.594 181.488C220.231 181.74 219.785 181.824 219.36 181.72C218.936 181.613 218.575 181.334 218.373 180.945C216.499 177.363 213.577 172.524 210.478 167.401C208.472 164.085 206.402 160.658 204.574 157.502C203.842 156.232 203.154 154.93 202.484 153.674C199.897 148.801 197.668 144.591 194.466 144.878C194.247 144.896 194.009 144.935 193.778 145.001C191.22 145.645 189.728 148.243 189.982 150.168C190.263 152.264 192.649 156.113 194.952 159.834C195.915 161.388 196.911 162.993 197.809 164.558C199.883 168.147 201.998 171.588 204.041 174.918C206.138 178.332 208.308 181.865 210.4 185.511C210.8 186.206 210.589 187.091 209.923 187.536C205.023 190.79 198.815 193.36 193.341 195.625C192.503 195.975 191.677 196.315 190.878 196.652C190.118 196.967 189.249 196.625 188.907 195.883C186.871 191.46 183.398 185.384 179.947 179.482C179.131 178.086 178.303 176.549 177.5 175.07C174.294 169.135 170.667 162.413 166.829 162.755C166.206 162.808 165.546 163.054 164.865 163.474C164.152 163.919 162.908 164.913 162.605 166.561C162.347 168.003 163.496 169.899 164.951 172.293C165.337 172.928 165.742 173.598 166.146 174.299C167.212 176.135 168.269 177.98 169.325 179.824C172.784 185.86 176.36 192.098 180.113 198.004C180.336 198.359 180.41 198.791 180.305 199.195C180.203 199.601 179.936 199.945 179.57 200.15C176.258 201.998 172.329 202.804 168.53 203.583C166.761 203.947 165.082 204.292 163.502 204.73C162.736 204.939 161.957 204.54 161.676 203.814C159.9 199.236 157.703 192.891 155.573 186.763L154.118 182.57C152.407 177.66 150.708 174.442 148.007 174.688C147.591 174.723 147.134 174.838 146.652 175.026C142.828 176.533 143.064 179.213 145.101 185.05C146.378 188.712 147.972 193.123 149.511 197.387C150.327 199.646 151.12 201.832 151.817 203.777C151.989 204.257 151.909 204.792 151.604 205.2C151.302 205.607 150.815 205.845 150.302 205.812L149.058 205.755C143.683 205.509 136.99 205.208 134.329 198.172C132.901 194.381 134.221 190.282 135.5 186.321L135.772 185.47C135.981 184.823 136.227 184.136 136.477 183.425C137.52 180.502 138.703 177.189 137.553 175.285C136.66 173.793 134.95 172.934 133.206 173.092C132.292 173.174 131.413 173.524 130.589 174.133C129.028 175.289 127.866 178.963 127.167 181.162L127.05 181.542C124.833 188.47 121.806 197.955 128.239 206.339C133.524 213.237 142.185 216.006 155.481 215.057C156.162 215.008 156.789 215.414 157.02 216.049C157.18 216.498 157.326 216.94 157.475 217.381C157.793 218.379 158.104 219.322 158.643 220.295C158.906 220.761 158.906 221.33 158.639 221.793C158.375 222.257 157.879 222.55 157.354 222.56C157.242 222.562 157.127 222.572 157.014 222.58C154.52 222.802 153.186 224.802 152.969 226.685C152.772 228.442 153.477 230.62 156.053 231.458C156.289 231.534 156.741 231.61 157.592 231.534C158.938 231.411 160.639 230.979 162.441 230.524C163.422 230.272 164.412 230.024 165.376 229.813C166.792 229.505 168.154 229.313 169.472 229.128C171.688 228.819 173.784 228.522 174.858 227.759C176.571 226.54 177.116 224.15 176.077 222.431C174.915 220.515 173.667 220.406 171.284 220.617L170.454 220.697C169.737 220.771 168.982 220.847 168.198 220.881C167.564 220.906 166.984 220.543 166.734 219.965C166.328 219.027 166.14 218.143 165.976 217.363C165.857 216.801 165.746 216.274 165.568 215.756C165.427 215.356 165.457 214.914 165.658 214.539C165.851 214.164 166.197 213.889 166.605 213.778C168.478 213.276 170.347 212.792 172.216 212.305C176.366 211.233 180.658 210.122 184.91 208.804C185.564 208.604 186.277 208.866 186.646 209.446L188.827 212.879C189.054 213.237 189.122 213.674 189.015 214.084C188.904 214.493 188.63 214.842 188.259 215.041C185.9 216.293 185.564 218.699 185.992 220.375C186.404 221.961 187.663 223.646 189.964 223.607H189.968C191.493 223.474 195.02 221.502 196.528 220.66C197.049 220.369 197.573 220.082 198.098 219.793C201.377 218.004 204.767 216.153 205.334 214.09C205.539 213.348 205.367 212.522 204.804 211.569C203.908 210.059 202.816 209.503 201.039 209.661C200.147 209.743 199.117 209.993 197.692 210.479C197.063 210.694 196.368 210.473 195.977 209.94C195.526 209.333 195.391 208.768 195.303 208.392C195.223 208.075 195.206 207.997 195.022 207.817C194.706 207.487 194.553 207.034 194.606 206.579C194.657 206.126 194.913 205.718 195.303 205.472C198.069 203.704 201.143 202.359 204.4 200.937C207.669 199.508 211.05 198.031 214.192 196.055C214.819 195.658 215.643 195.776 216.137 196.324C216.893 197.168 217.51 198.16 218.153 199.207C218.797 200.24 219.459 201.312 220.283 202.25C220.58 202.589 220.707 203.035 220.641 203.48C220.576 203.923 220.315 204.312 219.934 204.548C217.709 205.927 216.124 208.72 216.323 210.909C216.452 212.294 217.288 213.299 218.819 213.893C220.967 214.729 223.367 213.1 226.771 210.786C227.765 210.108 228.837 209.38 229.995 208.649C230.581 208.278 231.161 207.923 231.722 207.577C237.346 204.122 238.536 202.878 236.862 200.107C236.012 198.703 234.88 198.115 233.298 198.258C232.239 198.353 230.991 198.773 229.601 199.506C228.941 199.855 228.128 199.674 227.679 199.08C226.623 197.689 225.976 196.402 225.342 195.162C224.877 194.246 224.443 193.383 223.848 192.489C223.4 191.809 223.566 190.895 224.23 190.417C225.443 189.542 226.683 188.669 227.921 187.802C231.81 185.075 235.833 182.257 238.805 179.324C239.157 178.98 239.653 178.828 240.137 178.912C240.623 178.996 241.035 179.31 241.248 179.752C242.264 181.869 243.629 184.202 245.418 186.87C245.582 187.12 245.674 187.415 245.674 187.714C245.674 189.032 245.09 189.932 244.66 190.59C244.422 190.956 244.23 191.243 244.182 191.516C243.998 192.528 244.373 194.164 245.447 195.334C246.027 195.975 247.043 196.707 248.576 196.572L248.705 196.559C251.974 196.174 262.016 189.239 262.483 187.044C262.756 185.763 262.467 184.562 261.672 183.665C260.786 182.679 259.372 182.162 257.895 182.294Z" fill="#CE7A00"/>
<path fill-rule="evenodd" clip-rule="evenodd" d="M291.917 7.74765C290.386 8.00587 290.729 9.95687 290.546 10.8463C289.81 14.4204 289.511 18.2199 288.741 22.0175C285.81 36.443 276.504 49.6718 264.917 62.7776C250.011 79.6379 230.503 95.6456 208.856 111.793C178.14 134.713 140.433 158.627 104.594 179.578C99.1709 182.746 92.7932 187.079 86.6205 191.007C80.7449 194.741 74.357 199.738 69.8258 200.201C66.3706 200.555 63.4195 195.633 59.4478 197.893C52.9656 201.576 60.411 211.665 64.6511 218.338C69.2438 225.556 75.4493 235.704 80.6711 233.022C85.106 230.743 83.9399 223.59 86.4197 220.461C87.639 218.918 89.588 217.428 91.2009 216.303C96.4411 212.663 102.464 209.612 108.188 206.242C125.458 196.084 142.468 184.822 159.636 173.905C181.798 159.808 205.112 147.378 226.913 136.689C249.688 125.528 271.374 115.611 291.788 110.286C309.712 105.608 327.304 106.153 343.896 107.589C346.113 107.778 348.654 108.749 350.769 107.298C336.405 84.581 320.459 58.9678 307.572 35.2872C303.092 27.0569 298.438 19.2488 294.704 11.5493C294.221 10.5574 293.456 8.60839 291.917 7.74765Z" fill="#FCB322"/>
<path fill-rule="evenodd" clip-rule="evenodd" d="M298.59 97.0476C298.469 90.3974 285.833 95.4758 281.171 98.8429C278.881 100.499 277.293 102.823 278.09 104.511C280.308 109.166 297.127 103.149 298.59 97.0476Z" fill="#CE7A00"/>
<path fill-rule="evenodd" clip-rule="evenodd" d="M279.499 88.0351C276.597 87.3895 269.447 91.4063 269.623 94.6833C272.199 97.5565 279.393 92.6052 280.508 89.6131C280.169 89.0885 279.835 88.5618 279.499 88.0351Z" fill="white"/>
<path fill-rule="evenodd" clip-rule="evenodd" d="M269.781 107.2C268.697 103.626 258.129 109.258 260.727 112.219C262.133 113.83 270.722 110.311 269.781 107.2Z" fill="#CE7A00"/>
<path fill-rule="evenodd" clip-rule="evenodd" d="M105.596 189.33C103.549 184.668 88.2136 194.218 91.6852 197.809C94.6712 200.895 107.435 193.505 105.596 189.33Z" fill="white"/>
<path fill-rule="evenodd" clip-rule="evenodd" d="M93.2894 203.837C92.3077 200.507 84.5775 204.905 86.5141 207.776C88.1905 210.249 94.0518 206.425 93.2894 203.837Z" fill="white"/>
<path fill-rule="evenodd" clip-rule="evenodd" d="M83.859 198.333C80.3443 198.566 76.098 202.028 76.6657 205.128C76.8583 205.313 77.1022 205.225 77.2743 205.491C80.0553 206.885 88.341 201.255 83.859 198.333Z" fill="#CE7A00"/>
<path fill-rule="evenodd" clip-rule="evenodd" d="M351.389 106.531C343.343 107.064 335.873 100.432 328.907 93.3594C315.069 79.3027 301.3 57.2718 295.145 39.102C292.043 29.9392 290.627 20.7436 293.787 13.6138C299.615 11.2591 301.671 7.4821 299.218 3.47761C295.098 -3.24231 285.669 2.67626 282.519 8.1522C281.398 10.1053 280.304 13.6282 279.898 16.8744C278.086 31.3922 285.593 53.2652 298.234 73.1422C310.954 93.1503 326.782 111.923 340.377 117.243C344.681 118.925 351.674 120.364 357.244 116.913C362.556 113.626 364.888 104.6 362.052 99.3784C360.103 95.7755 356.664 95.0869 354.034 96.6834C350.098 99.073 352.327 103.104 351.389 106.531Z" fill="#CE7A00"/>
<path fill-rule="evenodd" clip-rule="evenodd" d="M342.182 50.0291C334.899 37.2696 327.115 26.1271 318.145 16.3127C312.936 10.6113 298.94 -3.97214 290.233 1.0263C281.238 6.19278 286.909 23.756 289.915 32.0396C298.356 55.339 312.112 78.993 330.78 99.2245C337.118 106.09 349.478 119.544 358.815 112.953C363.006 109.984 362.879 104.112 362.156 98.9457C361.33 93.0291 360.102 88.8546 358.153 83.3049C354.059 71.6951 349.191 62.3049 342.182 50.0291Z" fill="#FCB322"/>
<path fill-rule="evenodd" clip-rule="evenodd" d="M327.028 57.8125C322.9 50.5864 318.494 44.2681 313.406 38.7061C310.454 35.4742 302.523 27.209 297.588 30.0413C292.49 32.9657 295.707 42.9217 297.404 47.6189C302.189 60.823 309.987 74.228 320.568 85.6943C324.161 89.584 331.165 97.2097 336.455 93.4757C338.834 91.7932 338.756 88.465 338.353 85.5365C337.883 82.1857 337.189 79.8208 336.084 76.6729C333.76 70.0965 331.004 64.7722 327.028 57.8125Z" fill="#2F3F9A"/>
<path fill-rule="evenodd" clip-rule="evenodd" d="M38.7883 238.37C35.7552 240.044 39.7699 244.838 42.2907 247.76C47.4428 253.718 52.0457 258.439 57.1958 264.686C58.8415 266.686 62.2967 272.445 64.6146 269.883C66.17 268.159 62.5795 264.067 60.6941 261.392C56.831 255.931 52.4884 250.195 47.2338 244.381C45.3442 242.288 40.9586 237.171 38.7883 238.37Z" fill="#C43210"/>
<path fill-rule="evenodd" clip-rule="evenodd" d="M27.9794 282.181C26.6022 283.027 25.9341 284.107 26.4526 285.14C27.2683 286.784 29.6824 287.022 31.2215 287.247C36.2609 287.981 40.4806 287.794 45.5754 287.948C50.7726 288.106 54.6418 288.091 60.0829 288.003C61.8085 287.97 64.0321 287.915 64.8416 286.321C66.8316 282.404 58.6012 282.171 57.263 282.035C49.584 281.246 41.325 280.478 33.5045 281.039C31.6498 281.179 29.457 281.269 27.9794 282.181Z" fill="#C43210"/>
<path fill-rule="evenodd" clip-rule="evenodd" d="M93.0179 237.258C92.9666 237.286 92.8826 237.106 92.7597 237.251C90.6652 239.629 89.4397 242.824 87.7899 245.726C84.7363 251.087 81.9307 256.768 79.6969 262.467C78.7398 264.9 76.3667 269.296 77.9959 270.91C80.6765 273.56 83.5129 266.496 84.4679 264.576C87.6137 258.276 90.284 252.78 92.731 246.66C93.2208 245.433 93.8335 243.889 94.5652 242.141C95.2394 240.543 96.3051 238.813 95.4874 237.729C94.6533 236.618 93.9196 236.764 93.0179 237.258Z" fill="#C43210"/>
<path fill-rule="evenodd" clip-rule="evenodd" d="M40.8089 309.308C39.9256 310.426 39.1386 311.652 40.2453 312.736C42.059 314.505 45.1536 312.304 46.8812 311.25C49.199 309.834 50.6234 308.793 53.0416 307.195C54.7959 306.041 56.8596 304.86 59.2082 303.141C60.9399 301.872 64.6657 298.71 63.4033 297.056C61.9933 295.214 59.2636 296.685 57.29 297.78C52.9576 300.19 50.0126 301.87 46.3238 304.575C44.4035 305.981 42.3316 307.395 40.8089 309.308Z" fill="#C43210"/>
<path fill-rule="evenodd" clip-rule="evenodd" d="M96.5589 273.122C93.8988 274.608 87.8551 277.418 88.3203 280.146C88.9597 283.998 96.8273 279.113 101.067 277.035C111.792 271.79 118.752 269.436 129.726 263.773C133.704 261.728 142.936 257.455 142.094 254.235C141.405 251.628 135.862 254.229 132.224 255.588C123.846 258.717 117.936 260.986 109.109 266.132C104.935 268.565 100.664 270.829 96.5589 273.122Z" fill="#C43210"/>
<path fill-rule="evenodd" clip-rule="evenodd" d="M72.0226 303.666C71.8935 303.719 71.2972 304.043 70.6864 304.67C68.2969 307.121 66.4217 310.072 64.4174 312.843C60.8863 317.747 56.9597 323.568 54.3775 329.138C53.1806 331.72 50.5041 335.69 51.9059 337.292C54.4676 340.223 57.802 333.595 59.2755 331.374C63.3988 325.158 67.0426 319.602 70.8115 313.427C72.2132 311.128 75.8468 306.318 74.488 304.392C73.6601 303.221 72.9285 303.291 72.0226 303.666Z" fill="#C43210"/>
<path fill-rule="evenodd" clip-rule="evenodd" d="M98.7181 289.664C97.6729 290.293 96.472 291.029 97.1749 292.305C98.0131 293.818 100.692 293 102.561 292.625C108.658 291.399 113.371 290.447 119.616 288.709C125.227 287.157 138.804 282.974 144.897 281.093C147.159 280.394 149.596 279.304 148.631 277.392C147.409 274.986 141.173 276.794 138.687 277.296C131.73 278.699 116.55 283.282 109.719 285.438C106.12 286.573 102.36 287.711 99.0234 289.455C98.9128 289.514 98.8288 289.6 98.7181 289.664Z" fill="#C43210"/>
<path fill-rule="evenodd" clip-rule="evenodd" d="M83.0941 313.285C81.1185 313.908 80.9382 318.209 80.6738 319.879C80.0754 323.687 80.1778 327.575 80.0446 331.879C79.9811 333.809 79.4934 336.742 81.2989 337.801C81.7415 338.064 83.006 337.9 83.2622 337.736C84.6025 336.873 84.6435 334.088 84.8668 332.424C85.3279 328.921 85.7337 325.278 85.8403 321.865C85.8977 319.992 86.2911 318.258 85.9981 316.646C85.7276 315.109 84.7685 312.756 83.0941 313.285Z" fill="#C43210"/>
<path fill-rule="evenodd" clip-rule="evenodd" d="M102.631 301.968C103.916 300.333 108.005 301.683 109.656 302.026C113.433 302.815 117.032 304.28 121.108 305.673C122.934 306.301 125.853 306.872 126.207 308.942C126.289 309.45 125.691 310.571 125.447 310.756C124.166 311.709 121.549 310.76 119.916 310.377C116.473 309.569 112.915 308.668 109.693 307.561C107.921 306.956 106.158 306.71 104.746 305.868C103.406 305.065 101.545 303.343 102.631 301.968Z" fill="#C43210"/>
<path fill-rule="evenodd" clip-rule="evenodd" d="M112.703 336.675C112.836 337.952 114.304 338.962 115.207 340.155C118.316 344.25 121.206 348.697 124.352 353.113C131.805 363.575 140.974 374.738 149.625 385.651C151.01 387.406 153.578 391.064 155.525 389.232C157.326 387.543 154.285 384.373 152.859 382.352C143.03 368.396 132.672 355.161 120.667 341.102C118.804 338.928 117.907 336.243 115.773 334.55C114.652 334.407 113.136 335.589 112.703 336.675Z" fill="#1A1A60"/>
<path fill-rule="evenodd" clip-rule="evenodd" d="M67.1171 276.066C64.289 277.753 66.2912 281.552 68.0311 284.587C72.9783 293.225 80.4442 301.611 87.6294 310.288C94.3062 318.353 102.047 327.239 110.369 336.082C112.429 338.275 116.149 343.292 118.427 341.689C120.557 340.197 118.407 336.719 117.087 334.328C110.304 322.011 100.428 309.266 90.769 297.443C86.5247 292.238 82.7129 287.286 78.4174 282.683C75.4355 279.497 70.3654 274.127 67.1171 276.066Z" fill="#2F3F9A"/>
<path fill-rule="evenodd" clip-rule="evenodd" d="M130.972 219.258C140.026 200.086 151.171 182.501 168.34 169.298C176.142 163.298 186.664 155.67 200.714 155.592C213.058 155.524 222.643 162.658 222.792 177.441C222.893 187.337 218.101 196.547 213.185 203.775C208.18 211.12 201.801 217.676 194.451 222.666C187.211 227.583 177.616 232.493 166.18 234.161C154.679 235.842 144.115 234.651 134.921 230.989C131.185 240.975 128.5 249.732 127.873 260.729C127.178 272.915 129.878 285.062 135.087 293.407C145.344 309.841 163.336 318.506 189.359 313.319C200.794 311.04 210.744 306.49 219.374 301.838C243.235 288.978 262.704 271.919 279.952 253.145C281.776 251.163 283.206 248.798 285.311 248.618C287.311 248.447 288.854 249.65 289.303 251.21C290.127 254.04 288 256.122 285.983 258.334C273.994 271.509 260.958 283.445 246.159 294.427C238.038 300.455 228.777 306.217 218.708 311.267C208.641 316.323 197.198 320.848 184.084 322.404C156.772 325.652 138.161 314.116 127.574 296.225C124.772 291.499 122.535 286.14 121.149 279.99C117.034 261.719 121.545 244.113 126.23 231.114C126.685 229.845 127.586 228.138 127.551 227.48C127.508 226.499 127.039 226.519 126.045 225.695C124.287 224.234 121.621 222.031 120.229 220.486C113.038 212.487 108.759 201.974 107.119 187.605C104.965 168.763 108.869 154.526 113.919 140.49C118.651 127.348 125.281 114.328 132.447 102.696C137.571 94.3689 143.35 85.4111 150.728 77.978C153.081 75.6089 155.552 72.8136 158.895 71.3892C161.684 70.2027 164.653 71.2929 164.869 74.1887C165.096 77.1644 161.27 78.2587 159.825 79.5478C155.569 83.3433 151.773 88.5138 148.148 93.502C137.454 108.202 128.9 123.89 121.891 141.757C117.546 152.836 114.085 167.405 114.763 182.164C115.481 197.805 120.53 211.712 130.972 219.258ZM165.274 226.218C184.135 223.189 198.243 211.374 206.201 199.785C210.607 193.36 215.089 186.234 214.699 177.057C214.232 166.038 206.834 162.117 196.659 163.886C188.357 165.333 181.325 169.512 175.183 173.955C157.802 186.521 146.5 205.013 137.975 223.457C146.176 226.79 155.661 227.759 165.274 226.218Z" fill="#2F3F9A"/>
<path fill-rule="evenodd" clip-rule="evenodd" d="M285.207 268.651C287.199 268.056 289.476 269.065 289.849 271.167C290.234 273.342 287.867 275.645 286.834 277.164C278.421 289.544 269.722 302.871 262.004 315.028C255.089 325.918 248.332 336.686 241.409 348.058C240.446 349.642 239.467 351.642 238.135 353.655C237.196 355.061 235.28 357.893 233.417 358.108C231.732 358.301 230.265 357.432 229.691 355.925C228.625 353.165 232.712 347.019 234.618 343.832C245.748 325.213 257.35 307.208 269.302 289.394C272.591 284.486 276.368 278.813 280.325 273.557C281.704 271.735 282.905 269.335 285.207 268.651Z" fill="#1A1A60"/>
<path fill-rule="evenodd" clip-rule="evenodd" d="M169.916 66.8659C176.992 65.9376 184.03 64.8207 191.77 63.9353C197.275 63.3021 204.563 61.4597 205.696 65.8249C207.477 72.7067 194.773 71.1061 187.309 72.4956C184.136 73.0858 179.263 73.6801 175.978 74.2253C177.687 75.4856 180.339 76.7521 182.96 78.2133C185.057 79.3794 188.663 80.898 189.204 83.3716C189.653 85.3862 188.491 87.4212 186.45 87.8209C184.866 88.1324 182.474 87.0646 180.599 86.0953C175.662 83.5499 170.057 80.0742 165.317 78.0494C165.329 84.7837 169.336 99.7831 163.626 101.306C157.193 103.023 158.917 92.7312 158.117 87.3597C156.72 88.8189 155.67 90.9215 154.408 93.0017C152.057 96.8873 149.815 100.681 147.069 104.935C145.924 106.72 144.348 109.563 142.431 110.034C139.939 110.651 138.087 109.046 137.767 107.306C137.263 104.552 139.989 101.259 141.206 99.2994C145.7 92.0508 149.953 85.0788 153.98 77.8219C147.401 78.9307 139.349 80.5291 131.818 81.8776C127.541 82.6461 122.493 84.0356 122.19 79.4963C122.009 76.7993 124.555 75.832 126.93 75.2602C134.711 73.3748 142.585 71.6922 150.498 70.1757C148.951 68.7862 146.36 67.6816 143.731 66.161C141.692 64.9846 137.892 63.7263 137.865 60.5231C137.849 59.0127 138.978 57.4593 140.741 57.1478C143.081 56.7338 146.526 59.193 148.483 60.1767C151.217 61.5539 153.443 62.8451 155.632 63.714C155.515 60.437 154.304 55.4775 155.982 53.4466C157.128 52.0653 159.632 51.6513 161.136 52.8584C163.085 54.4242 162.269 58.8057 163.073 62.2118C164.903 60.1358 166.424 56.7563 168.588 53.3154C169.5 51.8604 170.524 50.5713 171.557 48.8396C172.471 47.3046 173.4 45.0994 174.767 44.5584C176.859 43.7264 179.109 45.0236 179.572 46.6201C180.06 48.3129 179.027 50.6615 178.058 52.4506C175.404 57.3589 172.322 62.0232 169.916 66.8659Z" fill="#C43210"/>
<path fill-rule="evenodd" clip-rule="evenodd" d="M291.48 175.03C291.661 174.971 291.695 175.09 291.722 175.219C302.211 182.224 312.105 190.05 322.321 197.399C332.552 204.757 342.987 211.831 353.302 219.096C345.445 231.921 336.179 243.797 327.728 256.176C319.286 268.535 311.283 281.241 301.891 292.849C277.085 281.725 255.178 266.953 238.61 245.472C255.198 221.166 272.233 197.215 291.48 175.03Z" fill="#C43210"/>
<mask id="mask0_1494_18954" style="mask-type:luminance" maskUnits="userSpaceOnUse" x="238" y="175" width="116" height="118">
<path d="M291.477 175.031C291.658 174.972 291.693 175.09 291.719 175.22C302.208 182.224 312.102 190.051 322.318 197.4C332.549 204.757 342.984 211.832 353.299 219.097C345.442 231.922 336.176 243.798 327.725 256.176C319.283 268.536 311.281 281.242 301.888 292.85C277.083 281.726 255.175 266.954 238.607 245.472C255.195 221.167 272.23 197.216 291.477 175.031Z" fill="white"/>
</mask>
<g mask="url(#mask0_1494_18954)">
<path d="M249.447 202.127C259.925 205.724 275.286 206.718 291.59 204.857C302.846 203.57 313.91 200.977 322.747 197.555C325.338 196.551 328.03 195.297 330.883 193.971C332.262 193.327 333.66 192.675 335.08 192.038C335.507 191.845 335.949 191.657 336.404 191.464C340.372 189.761 343.19 188.325 343.3 185.373C343.372 183.49 342.843 182.015 341.733 180.98C340.442 179.785 338.353 179.297 336.388 179.75C334.095 180.281 331.76 181.392 329.508 182.465C328.711 182.845 327.934 183.215 327.159 183.562C319.253 187.095 309.393 190.981 296.226 193.05C285.35 194.764 272.767 195.063 261.698 193.909C261.098 193.846 260.497 193.786 259.893 193.729C257.062 193.458 254.136 193.173 251.25 192.407C250.529 192.218 249.761 191.86 248.941 191.481C248.439 191.249 247.92 191.005 247.404 190.808C246.51 190.464 245.565 190.337 244.67 190.435C243.328 190.587 242.155 191.249 241.456 192.251C240.71 193.313 240.508 194.698 240.881 196.26C241.545 199.061 245.389 200.734 249.447 202.127Z" fill="white"/>
<path d="M247.277 227.787C251.912 229.08 257.655 229.887 263.891 230.131C271.429 230.422 279.489 230.082 287.85 229.129C304.772 227.196 322.573 222.784 337.976 216.703C343.587 214.488 348.227 212.26 352.57 209.69L352.758 209.582C355.964 207.688 361.923 204.163 361.991 200.46C362.024 198.626 361.431 197.105 360.28 196.06C358.868 194.777 356.677 194.388 354.603 195.054C353.443 195.427 352.662 196.089 351.668 196.925C351.168 197.345 350.652 197.779 350.045 198.212C345.772 201.259 340.581 203.917 333.215 206.825C319.917 212.074 303.639 215.988 287.393 217.841H287.389C283.862 218.247 280.298 218.558 276.798 218.769C266.703 219.38 257.657 219.646 249.129 216.753C247.805 216.304 246.728 215.603 245.777 214.98C244.227 213.972 243.006 213.17 240.944 213.406C240.577 213.449 240.19 213.521 239.79 213.627C238.489 213.965 237.294 214.906 236.606 216.146C236.093 217.066 235.614 218.585 236.243 220.599C237.212 223.708 242.481 226.446 247.277 227.787Z" fill="white"/>
<path d="M373.678 209.66C371.787 210.023 370.09 211.281 368.292 212.613C367.54 213.169 366.764 213.749 365.95 214.275C357.552 219.694 349.495 223.901 340.605 227.516C326.032 233.443 313.379 237.118 299.585 239.446C296.252 240.005 292.799 240.493 289.324 240.891C277.206 242.278 264.827 242.608 253.533 241.852C242.354 241.102 231.209 239.409 223.721 237.323C223.079 237.142 222.403 236.927 221.7 236.702C219.612 236.04 217.253 235.29 215.538 235.482C215.324 235.511 215.124 235.546 214.943 235.599C213.755 235.95 212.638 236.896 211.97 238.134C211.445 239.1 210.953 240.694 211.584 242.795C212.298 245.164 215.814 246.438 218.399 247.195C228.096 250.019 239.409 251.998 251.117 252.923C262.372 253.81 275.236 253.49 288.315 251.994C301.562 250.486 314.687 247.832 326.266 244.334C345.393 238.556 361.435 231.019 375.309 221.301C378.877 218.798 380.273 216.87 380.13 214.64C380.033 213.101 379.398 211.8 378.297 210.88C377.039 209.828 375.264 209.351 373.678 209.66Z" fill="white"/>
<path d="M348.112 249.33C346.306 249.828 344.613 250.709 342.818 251.636C341.464 252.343 340.058 253.072 338.553 253.65C335.477 254.837 332.317 255.771 328.973 256.759L327.925 257.071C314.567 261.034 298.064 264.207 280.185 266.25C280.181 266.25 280.181 266.25 280.181 266.25C272.258 267.154 263.185 268.053 255.303 267.314C254.48 267.234 253.637 267.023 252.744 266.797C251.281 266.428 249.768 266.047 248.206 266.225C247.735 266.281 247.29 266.381 246.85 266.535C244.522 267.344 242.655 269.943 243.583 273.347C244.419 276.427 247.344 277.282 253.164 277.94C260.65 278.786 270.485 278.528 282.398 277.165C288.374 276.48 294.949 275.517 302.49 274.222C314.211 272.205 323.679 269.99 333.198 267.043C338.68 265.346 343.121 263.721 346.769 262.065C351.264 260.034 355.004 258.106 355.192 255.116C355.303 253.263 354.746 251.693 353.569 250.576C352.188 249.265 350.093 248.787 348.112 249.33Z" fill="white"/>
</g>
<path fill-rule="evenodd" clip-rule="evenodd" d="M356.81 234.578C323.073 224.372 295.576 206.319 275.41 179.042C288.231 170.861 302.636 164.133 317.041 156.882C324.116 153.32 331.184 149.691 338.23 146.193C345.478 142.592 352.836 138.917 360.615 136.456C363.911 135.415 368.036 135.54 369.714 138.028C371.473 140.641 370.911 147.498 370.567 151.203C370.161 155.568 369.505 159.497 368.909 163.358C365.243 186.981 360.048 212.15 356.81 234.578Z" fill="#2F3F9A"/>
<path fill-rule="evenodd" clip-rule="evenodd" d="M361.996 152.399C362.401 152.276 363.977 151.675 364.938 153.368C365.949 155.145 365.42 158.487 365.102 160.53C364.414 164.924 363.373 168.861 361.94 172.858C361.264 174.753 360.18 177.278 358.303 177.188C354.763 177.018 356.55 167.728 357.098 164.707C357.673 161.52 358.821 153.364 361.996 152.399Z" fill="white"/>
<path fill-rule="evenodd" clip-rule="evenodd" d="M356.698 182.16C360.686 180.552 359.311 187.157 358.627 189.555C358.127 191.315 357.233 194.086 355.177 193.647C352.796 193.137 353.993 187.911 354.54 186.103C355.126 184.148 355.43 182.671 356.698 182.16Z" fill="white"/>
<path fill-rule="evenodd" clip-rule="evenodd" d="M303.36 274.444C304.227 274.228 306.332 274.255 306.819 275.513C307.567 277.448 305.102 279.641 304.35 280.495C303.221 281.772 299.048 286.008 298.073 281.977C297.644 280.211 300.919 275.792 301.923 274.995C302.196 274.774 303.126 274.501 303.36 274.444Z" fill="#2F3F9A"/>
<path fill-rule="evenodd" clip-rule="evenodd" d="M318.722 250.889C320.29 254.496 317.691 257.529 315.265 260.642C314.324 261.843 309.301 268.112 306.594 266.635C303.639 265.018 306.696 260.243 307.836 258.443C309.387 255.986 311.424 252.892 312.951 251.766C314.353 250.727 317.23 249.504 318.722 250.889Z" fill="#2F3F9A"/>
<path fill-rule="evenodd" clip-rule="evenodd" d="M368.392 3.15407C369.812 5.82647 368.72 10.1548 368.025 14.2269C369.912 14.6839 374.372 13.8888 375.931 15.8336C375.446 17.5797 373.45 17.6535 372.07 17.9609C370.503 18.3113 368.845 18.629 367.285 18.7048C366.812 20.7009 366.873 22.0924 366.312 24.3365C365.609 27.1564 364.779 30.9355 363.291 30.7531C361.834 30.5789 362.063 28.0335 362.051 26.7281C362.028 23.8221 362.309 21.9059 362.967 18.8564C361.082 18.5162 359.299 18.5961 356.936 18.1432C355.278 17.8256 352.525 17.2518 352.593 15.8869C352.665 14.3929 356.181 14.149 357.413 14.1244C359.823 14.0814 361.744 14.7167 363.541 14.3396C364.445 11.1057 365.4 3.11924 368.392 3.15407Z" fill="#92AF17"/>
<path fill-rule="evenodd" clip-rule="evenodd" d="M66.45 104.475C72.9835 100.036 79.6685 94.9499 88.2718 90.888C90.7782 89.7055 95.0532 87.8467 96.0923 89.2854C97.2481 90.8798 93.8113 95.2716 93.0592 96.3004C88.2923 102.776 82.2815 108.416 76.7646 114.372C81.1851 122.893 86.493 130.394 90.9196 140.02C92.137 142.676 94.6639 147.627 93.1207 148.74C91.3931 149.986 88.0628 146.447 86.9869 145.498C81.4392 140.598 76.203 134.941 71.4792 128.431C72.6986 136.19 74.3545 144.201 74.8525 152.162C74.9488 153.74 75.6149 158.481 73.7131 159.089C71.6493 159.755 69.6676 154.312 68.6818 151.851C64.9458 142.461 62.5542 133.65 61.3737 125.43C53.2397 127.16 45.2185 128.865 37.1541 129.027C35.4819 129.062 30.9302 129.492 30.0838 127.57C29.2886 125.758 32.5103 123.01 33.621 122.08C39.2179 117.378 47.0895 113.689 55.2235 110.148C51.1555 100.459 46.9174 89.7506 44.4889 80.0386C43.8085 77.3129 43.1158 74.2982 43.5892 72.4763C45.3148 69.8613 49.1164 75.9255 50.51 77.8888C56.0002 85.615 62.0439 96.9767 66.45 104.475Z" fill="#92AF17"/>
<path fill-rule="evenodd" clip-rule="evenodd" d="M21.9227 181.961C26.2141 179.389 30.6121 175.725 36.9201 173.274C38.9429 172.485 41.48 171.846 42.3633 173.321C44.0192 176.086 37.9448 180.18 35.9712 181.869C32.7189 184.658 29.862 186.923 26.8699 189.3C29.8948 195.735 35.5347 203.365 37.9018 210.2C38.3034 211.36 38.6354 212.762 38.0862 213.903C35.877 214.952 34.1965 212.688 32.7742 211.352C28.3947 207.232 23.8164 200.601 20.0742 194.252C16.207 196.973 11.3233 200.426 5.94781 203.056C4.31856 203.853 2.52945 205.273 0.928886 204.429C-0.138841 202.361 1.96382 200.668 3.0377 199.33C6.48271 195.051 11.4135 190.577 16.1127 186.704C13.3215 180.646 5.5031 168.39 6.30031 163.312C6.80241 160.088 10.2474 163.546 11.4053 164.882C15.3832 169.475 18.5925 176.217 21.9227 181.961Z" fill="#92AF17"/>
<path fill-rule="evenodd" clip-rule="evenodd" d="M407.605 81.0024C403.806 83.1871 401.812 89.3434 399.535 94.8788C396.86 93.9852 391.997 89.577 388.591 90.7657C387.839 93.2803 390.233 94.9096 391.694 96.3523C393.346 97.9898 395.135 99.6518 396.989 100.943C396.036 103.759 394.893 105.423 393.852 108.608C392.542 112.61 390.661 117.891 392.616 118.807C394.54 119.713 396.221 116.416 397.237 114.823C399.502 111.274 400.631 108.706 402.176 104.454C404.746 105.484 406.876 106.958 410.124 108.22C412.403 109.106 416.225 110.52 417.19 108.794C418.254 106.902 414.128 103.896 412.634 102.921C409.712 101.011 406.859 100.314 404.945 98.4714C406.331 93.8029 411.308 83.2588 407.605 81.0024Z" fill="#92AF17"/>
<path fill-rule="evenodd" clip-rule="evenodd" d="M334.026 325.423C335.612 326.681 333.202 329.878 331.698 332.188C326.381 340.365 319.481 348.964 314.224 355.672C320.106 358.387 325.849 359.771 332.566 364.312C334.259 365.458 337.512 367.687 337.053 369.089C336.376 371.145 331.474 370.399 330.552 370.284C323.555 369.413 317.051 367.579 310.351 366.704C306.216 374.768 302.951 384.216 295.876 393.124C294.016 395.473 290.648 399.58 288.751 398.729C286.433 397.697 287.533 393.493 287.878 391.442C289.163 383.769 291.771 376.17 294.729 368.481C288.23 371.241 281.676 374.914 274.872 377.182C272.804 377.873 270.048 379.125 267.902 377.266C268.402 374.327 270.964 372.362 272.929 370.657C278.717 365.634 285.162 361.062 291.29 357.289C291.146 356.162 290.821 354.967 290.441 353.856C288.632 348.538 286.423 342.824 285.078 337.18C284.582 335.108 283.715 332.375 285.328 330.446C286.607 329.641 287.769 330.993 288.507 331.719C290.819 333.981 292.776 337.391 294.761 340.076C297.545 343.847 300.41 347.741 302.518 351.315C309.087 344.929 317.721 336.309 325.193 330.559C328.212 328.241 331.113 325.552 334.026 325.423Z" fill="#92AF17"/>
</svg>
