<svg width="276" height="169" viewBox="0 0 276 169" fill="none" xmlns="http://www.w3.org/2000/svg">
<path d="M41.7111 162.654L75.1903 168.343L93.9631 140.044L127.443 145.733L146.217 117.434L179.7 123.121L198.478 94.8205L157.749 0.694766L138.971 28.9945L105.489 23.308L86.7145 51.6063L53.2344 45.9186L34.4614 74.2165L0.982422 68.5283L41.7111 162.654Z" fill="#FFC337"/>
<path d="M256.681 98.2754L275.722 88.2147L258.072 75.8762L272.524 59.9099L251.718 54.3525L259.837 34.4062L238.385 36.2999L239.193 14.7796L219.682 23.8967L213.081 3.39759L197.865 18.6376L184.651 1.63281L175.565 21.1576L157.332 9.69807L155.472 31.153L134.419 26.6208L140.009 47.4177L118.675 50.3592L131.041 67.9902L112 78.051L129.651 90.3894L115.199 106.356L136.005 111.913L127.885 131.859L149.337 129.966L148.53 151.485L168.04 142.369L174.642 162.868L189.857 147.628L203.072 164.633L212.158 145.108L230.391 156.568L232.251 135.113L253.304 139.645L247.714 118.848L269.048 115.906L256.681 98.2754Z" fill="#0064E2"/>
</svg>
