<svg width="88" height="90" viewBox="0 0 88 90" fill="none" xmlns="http://www.w3.org/2000/svg">
<g filter="url(#filter0_di_1430_15688)">
<path fill-rule="evenodd" clip-rule="evenodd" d="M61.2381 37.6484L48.4151 44.2626C46.8122 45.0894 45.0443 45.3083 43.1114 44.9195C41.4545 44.5862 39.9088 43.7006 38.4742 42.2627L29.2621 30.9282C28.6004 29.9331 28.5464 28.7731 29.597 27.8352C30.6477 26.8973 31.7522 27.1195 32.6901 28.1701L41.9578 39.2285C43.1162 40.6108 45.0492 40.9997 46.3759 40.1173L59.199 33.5031C60.194 32.8414 61.5191 33.3953 62.1809 34.3903C62.7871 35.6615 62.2332 36.9866 61.2381 37.6484ZM60.9276 19.1981L36.6278 14.3095C28.6199 12.6985 21.2117 18.1035 19.4896 26.6637L16.0453 43.784C15.1565 48.2022 15.98 52.6775 18.1858 55.9944C20.1711 58.9796 23.2069 61.0269 27.0728 61.8046L51.3726 66.6932C54.9624 67.4153 58.5537 66.7013 61.815 64.7716C65.1319 62.5658 67.622 58.7571 68.5108 54.3389L71.9551 37.2186C73.6772 28.6584 68.9355 20.8091 60.9276 19.1981Z" fill="#00C70D"/>
<path d="M36.3075 15.9026L60.6068 20.7911C67.6186 22.2017 71.9312 29.0967 70.362 36.8976L66.9177 54.0185C66.1088 58.0392 63.8578 61.4434 60.9538 63.3916C58.011 65.1234 54.8378 65.7323 51.6929 65.0996L27.3936 60.2111C23.9304 59.5144 21.2741 57.7044 19.5385 55.0946C17.5947 52.1717 16.8259 48.1433 17.6384 44.1046L21.0827 26.9837L21.1597 26.6207C22.8327 19.1581 29.1987 14.6578 35.9793 15.8406L36.3075 15.9026ZM31.3997 25.6466C30.3077 25.5016 29.3123 25.9111 28.5147 26.6231C27.7129 27.3389 27.2323 28.2453 27.1657 29.2534C27.1014 30.2276 27.4345 31.1154 27.9088 31.8285L27.9516 31.8929L28.0013 31.9527L37.2132 43.2881L37.265 43.3523L37.324 43.411C38.9387 45.0293 40.7613 46.1047 42.7912 46.5131C45.0498 46.9674 47.1985 46.7185 49.1604 45.7065L61.9832 39.0929L62.0633 39.0513L62.1381 39.0016C63.6933 37.9673 64.6573 35.8084 63.6477 33.6911L63.598 33.5865L63.5336 33.4908L63.3271 33.2052C62.8166 32.5582 62.1181 32.048 61.3307 31.7846C60.4425 31.4874 59.3695 31.4914 58.4059 32.0827L45.6306 38.673L45.5505 38.7146L45.4757 38.7644C44.9681 39.1016 43.9365 39.0591 43.2036 38.1847L33.936 27.126L33.919 27.1067L33.9018 27.0883L33.6577 26.831C33.0642 26.2443 32.3091 25.7673 31.3997 25.6466Z" stroke="white" stroke-width="3.25"/>
</g>
<defs>
<filter id="filter0_di_1430_15688" x="0.093359" y="4.92588" width="87.8138" height="84.1432" filterUnits="userSpaceOnUse" color-interpolation-filters="sRGB">
<feFlood flood-opacity="0" result="BackgroundImageFix"/>
<feColorMatrix in="SourceAlpha" type="matrix" values="0 0 0 0 0 0 0 0 0 0 0 0 0 0 0 0 0 0 127 0" result="hardAlpha"/>
<feOffset dy="6.5"/>
<feGaussianBlur stdDeviation="7.8"/>
<feComposite in2="hardAlpha" operator="out"/>
<feColorMatrix type="matrix" values="0 0 0 0 0 0 0 0 0 0.780392 0 0 0 0 0.0509804 0 0 0 0.3 0"/>
<feBlend mode="normal" in2="BackgroundImageFix" result="effect1_dropShadow_1430_15688"/>
<feBlend mode="normal" in="SourceGraphic" in2="effect1_dropShadow_1430_15688" result="shape"/>
<feColorMatrix in="SourceAlpha" type="matrix" values="0 0 0 0 0 0 0 0 0 0 0 0 0 0 0 0 0 0 127 0" result="hardAlpha"/>
<feOffset dx="3.25" dy="2.6"/>
<feGaussianBlur stdDeviation="2.795"/>
<feComposite in2="hardAlpha" operator="arithmetic" k2="-1" k3="1"/>
<feColorMatrix type="matrix" values="0 0 0 0 1 0 0 0 0 1 0 0 0 0 1 0 0 0 0.35 0"/>
<feBlend mode="normal" in2="shape" result="effect2_innerShadow_1430_15688"/>
</filter>
</defs>
</svg>
