<svg width="97" height="98" viewBox="0 0 97 98" fill="none" xmlns="http://www.w3.org/2000/svg">
<g filter="url(#filter0_di_1430_15679)">
<path d="M45.5891 32.3092C46.4007 32.0039 47.0943 31.7629 47.6913 31.6154C48.2896 31.4675 48.9085 31.3818 49.5371 31.4824C50.8254 31.6886 51.6549 32.6342 52.2891 33.284L52.2907 33.2855C53.2442 34.2647 54.5171 35.5533 56.3114 36.3409C58.0375 37.0984 60.3612 37.4373 63.5081 36.2535C64.4169 35.9116 65.2652 35.6185 66.0229 35.3554L66.022 35.3558C66.6774 35.1252 67.3098 34.9058 67.9336 34.6711C68.8176 34.3385 69.8616 34.6448 70.3948 35.5002L77.1271 46.2988L77.1327 46.3082C79.1623 49.614 79.639 53.4237 78.4164 57.0009L78.4158 57.0021C77.0092 61.1058 73.4877 64.4724 69.0936 66.1255L50.1806 73.2404C45.9903 74.8166 41.4728 74.6715 37.8013 72.7034C34.4101 70.8848 32.0634 67.697 31.1595 63.801L31.149 63.7538L31.1407 63.7068L29.2124 52.3624L29.2067 52.3281L29.202 52.2933L29.0808 51.3331L29.0817 51.3328C28.936 50.1723 29.6124 49.0847 30.6809 48.6778L31.4736 48.3692C31.7383 48.2643 32.004 48.1575 32.2705 48.0495L32.2742 48.0482C33.0046 47.7545 33.8269 47.4192 34.7236 47.0819C37.8715 45.8976 39.3944 44.1112 40.1922 42.4037C41.0211 40.6297 41.1282 38.8233 41.2014 37.4561C41.2476 36.5519 41.245 35.2923 42.0783 34.2872C42.4845 33.7972 43.0058 33.4538 43.5522 33.1714C44.0978 32.8895 44.7783 32.6142 45.5891 32.3092ZM51.4905 47.9966C48.686 49.0516 47.2667 52.176 48.3166 54.9667C49.3763 57.7836 52.5065 59.1948 55.3068 58.1414C58.1093 57.0869 59.5302 53.9641 58.4705 51.147C57.4205 48.3559 54.2973 46.941 51.4905 47.9966Z" fill="#0064E2" stroke="white" stroke-width="3.225"/>
<path d="M70.9026 19.5916C71.8198 22.0296 72.3528 23.9965 72.4296 25.6144C72.5101 27.3095 72.0903 28.7086 71.0586 29.8247C70.1121 30.8486 68.7804 31.479 67.4252 32.0065C66.7279 32.2778 65.9585 32.545 65.1564 32.8234C64.3456 33.105 63.4859 33.4039 62.5658 33.75C60.2551 34.6193 58.4248 34.4879 56.8546 33.6312C56.1306 33.2363 55.5296 32.7224 55.0166 32.2317C54.7589 31.9853 54.5093 31.7302 54.2754 31.4901C54.0358 31.2444 53.8128 31.0147 53.5827 30.7887C52.6755 29.8982 51.8108 29.2302 50.5955 28.9472C49.3646 28.6606 47.5368 28.7175 44.6464 29.8048C41.7567 30.8919 40.3454 32.0528 39.6095 33.0789C38.8829 34.0922 38.6738 35.1643 38.5795 36.4317C38.5556 36.7532 38.5397 37.0728 38.5218 37.4154C38.5043 37.75 38.4851 38.1063 38.4541 38.4613C38.3922 39.1682 38.2787 39.9507 37.9951 40.7249C37.3799 42.4043 36.0913 43.7093 33.7813 44.5784C32.8605 44.9247 32.0163 45.2665 31.2201 45.5888C30.4326 45.9075 29.6776 46.2128 28.9735 46.4673C27.6047 46.9622 26.1874 47.3611 24.8008 47.2128C23.2905 47.0511 22.053 46.2765 20.9969 44.9502C19.9887 43.6842 19.0945 41.8569 18.1797 39.4252L18.1488 39.343L18.1266 39.2564C18.1388 39.3042 18.1457 39.3123 18.08 39.1435C18.0313 39.0184 17.9584 38.8341 17.8832 38.6176C17.7305 38.1781 17.5593 37.5902 17.4677 36.8781C17.2813 35.4277 17.4383 33.5657 18.5568 31.4497C20.7488 27.3035 26.508 22.4028 39.9584 17.3429C53.4088 12.2831 60.972 12.1716 65.3556 13.8436C67.5925 14.6968 68.9388 15.9928 69.7558 17.2059C70.1571 17.8018 70.4168 18.3569 70.592 18.7881C70.6783 19.0006 70.7456 19.1867 70.7916 19.313C70.8229 19.399 70.8382 19.4394 70.8429 19.4523L70.8717 19.5093L70.9026 19.5916Z" fill="#0064E2" stroke="white" stroke-width="3.225"/>
</g>
<defs>
<filter id="filter0_di_1430_15679" x="-10.1814" y="-8.23154" width="117.363" height="117.363" filterUnits="userSpaceOnUse" color-interpolation-filters="sRGB">
<feFlood flood-opacity="0" result="BackgroundImageFix"/>
<feColorMatrix in="SourceAlpha" type="matrix" values="0 0 0 0 0 0 0 0 0 0 0 0 0 0 0 0 0 0 127 0" result="hardAlpha"/>
<feOffset dy="6.45"/>
<feGaussianBlur stdDeviation="7.74"/>
<feComposite in2="hardAlpha" operator="out"/>
<feColorMatrix type="matrix" values="0 0 0 0 0 0 0 0 0 0.392157 0 0 0 0 0.886275 0 0 0 0.3 0"/>
<feBlend mode="normal" in2="BackgroundImageFix" result="effect1_dropShadow_1430_15679"/>
<feBlend mode="normal" in="SourceGraphic" in2="effect1_dropShadow_1430_15679" result="shape"/>
<feColorMatrix in="SourceAlpha" type="matrix" values="0 0 0 0 0 0 0 0 0 0 0 0 0 0 0 0 0 0 127 0" result="hardAlpha"/>
<feOffset dx="3.87" dy="5.16"/>
<feGaussianBlur stdDeviation="3.87"/>
<feComposite in2="hardAlpha" operator="arithmetic" k2="-1" k3="1"/>
<feColorMatrix type="matrix" values="0 0 0 0 1 0 0 0 0 1 0 0 0 0 1 0 0 0 0.35 0"/>
<feBlend mode="normal" in2="shape" result="effect2_innerShadow_1430_15679"/>
</filter>
</defs>
</svg>
